<?xml version="1.0" encoding="UTF-8" standalone="no"?>
<svg
   xmlns:dc="http://purl.org/dc/elements/1.1/"
   xmlns:cc="http://creativecommons.org/ns#"
   xmlns:rdf="http://www.w3.org/1999/02/22-rdf-syntax-ns#"
   xmlns:svg="http://www.w3.org/2000/svg"
   xmlns="http://www.w3.org/2000/svg"
   viewBox="0 0 1488.1875 1052.3625"
   height="1052.3625"
   width="1488.1875"
   xml:space="preserve"
   version="1.1"
   id="svg2"><metadata
     id="metadata8"><rdf:RDF><cc:Work
         rdf:about=""><dc:format>image/svg+xml</dc:format><dc:type
           rdf:resource="http://purl.org/dc/dcmitype/StillImage" /></cc:Work></rdf:RDF></metadata><defs
     id="defs6"><clipPath
       id="clipPath16"
       clipPathUnits="userSpaceOnUse"><path
         id="path18"
         d="m 0,841.89 1190.551,0 0,-841.89 L 0,0 0,841.89 Z" /></clipPath></defs><g
     transform="matrix(1.25,0,0,-1.25,0,1052.3625)"
     id="g10"><g
       id="g12"><g
         clip-path="url(#clipPath16)"
         id="g14"><g
           transform="translate(302.8789,390.4814)"
           id="g20"><path
             id="path22"
             style="fill:#37869f;fill-opacity:1;fill-rule:nonzero;stroke:none"
             d="M 0,0 50.763,0 39.648,67.895 0,0 Z m -63.251,-55.494 c 7.551,0 13.217,1.388 16.994,4.163 3.776,2.773 7.747,7.781 11.909,15.028 l 78.619,130.183 9.71,0 24.738,-129.256 c 1.387,-7.712 3.388,-12.989 6.012,-15.841 2.618,-2.852 7.556,-4.277 14.802,-4.277 l -0.925,-4.624 -60.119,0 0.926,4.624 c 5.855,0 10.363,0.77 13.525,2.311 3.158,1.544 4.741,4.553 4.741,9.032 0,2.158 -0.142,4.048 -0.416,5.67 -0.279,1.619 -0.487,2.969 -0.625,4.05 l -4.15,25.413 -57.125,0 -16.247,-28.241 c -1.402,-2.309 -2.573,-4.542 -3.509,-6.695 -0.936,-2.153 -1.401,-3.692 -1.401,-4.614 0,-4.618 4.93,-6.926 14.799,-6.926 l -0.927,-4.624 -52.256,0 0.925,4.624 z" /></g><g
           transform="translate(450.2773,356.7236)"
           id="g24"><path
             id="path26"
             style="fill:#37869f;fill-opacity:1;fill-rule:nonzero;stroke:none"
             d="m 0,0 c -0.462,-2.16 -0.848,-4.086 -1.159,-5.781 -0.311,-1.698 -0.462,-3.007 -0.462,-3.931 0,-2.624 1.307,-4.549 3.931,-5.781 2.618,-1.235 6.393,-1.849 11.33,-1.849 24.816,0 42.581,8.938 53.298,26.822 10.712,17.881 16.071,39.077 16.071,63.587 0,15.106 -3.162,26.476 -9.482,34.107 -6.322,7.631 -16.959,11.445 -31.909,11.445 -7.245,0 -12.291,-1.271 -15.141,-3.814 -2.855,-2.545 -4.897,-7.054 -6.129,-13.528 L 0,0 Z m -45.552,-21.736 c 8.65,0 14.561,1.5 17.726,4.505 3.164,3.006 5.6,8.744 7.301,17.218 l 20.349,101.28 c 0.295,1.849 0.552,3.619 0.777,5.318 0.22,1.698 0.405,3.161 0.553,4.397 0,4.78 -1.544,7.981 -4.627,9.6 -3.084,1.619 -7.478,2.431 -13.179,2.431 l 0.926,4.625 60.119,0 c 18.649,0 33.564,-4.127 44.742,-12.371 11.176,-8.249 16.764,-22.545 16.764,-42.893 0,-35.765 -8.324,-61.159 -24.973,-76.189 C 64.277,-18.846 40.538,-26.36 9.708,-26.36 l -56.188,0 0.928,4.624 z" /></g><g
           transform="translate(623.9248,337.0674)"
           id="g28"><path
             id="path30"
             style="fill:#37869f;fill-opacity:1;fill-rule:nonzero;stroke:none"
             d="m 0,0 c 13.102,0 23.471,6.205 31.102,18.614 7.63,12.408 12.868,26.785 15.723,43.124 2.85,16.34 4.278,31.136 4.278,44.397 0,10.637 -2.393,19.036 -7.17,25.204 -4.778,6.163 -11.716,9.249 -20.809,9.249 -13.261,0 -23.7,-6.323 -31.332,-18.96 -7.63,-12.642 -12.912,-27.17 -15.839,-43.587 -2.932,-16.418 -4.392,-30.948 -4.392,-43.587 0,-9.867 2.463,-18.074 7.397,-24.625 C -16.11,3.273 -9.097,0 0,0 m -51.332,42.084 c 0,16.187 1.85,32.102 5.55,47.749 3.699,15.644 11.214,29.518 22.544,41.621 11.329,12.1 27.09,18.151 47.287,18.151 17.417,0 30.096,-4.433 38.035,-13.295 7.939,-8.867 11.909,-21.389 11.909,-37.575 0,-32.064 -6.051,-58.038 -18.152,-77.922 C 43.738,0.926 24.511,-9.016 -1.85,-9.016 c -18.654,0 -31.563,4.7 -38.73,14.105 -7.167,9.4 -10.752,21.735 -10.752,36.995" /></g><g
           transform="translate(814.457,451.2954)"
           id="g32"><path
             id="path34"
             style="fill:#37869f;fill-opacity:1;fill-rule:nonzero;stroke:none"
             d="m 0,0 c 0,8.169 -2.429,14.603 -7.284,19.307 -4.856,4.701 -12.834,7.053 -23.933,7.053 -9.405,0 -17.19,-2.391 -23.353,-7.168 -6.168,-4.78 -9.25,-11.179 -9.25,-19.192 0,-8.786 5.008,-16.613 15.031,-23.47 10.018,-6.861 19.885,-13.526 29.597,-20 10.479,-8.943 15.723,-19.655 15.723,-32.141 0,-15.111 -5.358,-26.823 -16.07,-35.148 -10.717,-8.324 -25.939,-12.485 -45.668,-12.485 -8.942,0 -16.995,0.618 -24.164,1.85 -7.168,1.231 -12.757,2.542 -16.764,3.93 l 3.932,30.754 5.317,0 c 0,-9.249 2.659,-16.151 7.979,-20.696 5.317,-4.55 13.601,-6.822 24.856,-6.822 10.02,0 18.805,2.776 26.361,8.326 7.549,5.549 11.329,13.255 11.329,23.121 0,9.558 -5.011,18.189 -15.031,25.898 -9.403,6.32 -18.727,12.638 -27.977,18.963 -10.023,8.322 -15.03,18.034 -15.03,29.134 0,13.255 4.661,23.931 13.988,32.024 9.327,8.093 22.776,12.139 40.35,12.139 7.09,0 14.337,-0.618 21.735,-1.849 7.4,-1.236 13.257,-2.467 17.575,-3.7 L 5.317,0 0,0 Z" /></g><g
           transform="translate(819.0811,334.9873)"
           id="g36"><path
             id="path38"
             style="fill:#37869f;fill-opacity:1;fill-rule:nonzero;stroke:none"
             d="m 0,0 c 8.635,0 14.531,1.503 17.693,4.509 3.157,3.006 5.584,8.747 7.283,17.227 L 45.32,123.013 c 0.307,1.851 0.577,3.621 0.811,5.318 0.23,1.695 0.423,3.159 0.577,4.393 0,4.777 -1.543,7.979 -4.625,9.597 -3.085,1.619 -7.479,2.428 -13.181,2.428 l 0.926,4.625 61.738,0 -0.928,-4.625 c -8.498,0 -14.333,-1.504 -17.498,-4.508 -3.164,-3.008 -5.6,-8.745 -7.298,-17.216 l -9.047,-43.851 0.606,-0.502 53.364,49.659 c 3.389,3.237 5.774,5.665 7.162,7.284 1.386,1.618 2.08,3.198 2.08,4.74 0,2.926 -3.623,4.394 -10.868,4.394 l 0.925,4.625 51.101,0 -0.924,-4.625 c -7.553,0 -14.14,-1.582 -19.767,-4.744 -5.627,-3.162 -12.833,-8.751 -21.616,-16.768 L 75.03,82.13 107.521,26.592 c 4.931,-8.48 9.25,-15.029 12.948,-19.655 C 124.17,2.312 130.795,0 140.355,0 l -0.925,-4.624 -60.581,0 L 79.773,0 c 9.248,0 13.873,1.922 13.873,5.773 0,2.924 -1.788,7.541 -5.364,13.852 L 56.116,74.618 45.493,21.747 c -0.889,-3.704 -1.329,-6.94 -1.329,-9.717 0,-4.783 1.539,-7.983 4.625,-9.602 C 51.87,0.81 56.188,0 61.737,0 l -0.925,-4.624 -61.737,0 L 0,0 Z" /></g><g
           transform="translate(996.6641,334.9873)"
           id="g40"><path
             id="path42"
             style="fill:#37869f;fill-opacity:1;fill-rule:nonzero;stroke:none"
             d="m 0,0 c 9.113,0 15.407,1.5 18.883,4.505 3.475,3.007 6.061,8.744 7.76,17.219 L 35.577,67.128 12.02,126.25 c -2.928,7.245 -6.09,12.14 -9.48,14.684 -3.393,2.544 -8.786,3.815 -16.186,3.815 l 0.926,4.625 64.049,0 -0.925,-4.625 c -6.167,0 -10.636,-0.694 -13.411,-2.081 -2.774,-1.387 -4.161,-4.157 -4.161,-8.313 0,-1.54 0.233,-3.002 0.703,-4.39 0.47,-1.387 1.645,-4.621 3.523,-9.701 l 14.596,-37.249 35.979,43.93 c 3.082,3.699 5.046,6.278 5.896,7.745 0.845,1.463 1.272,2.966 1.272,4.509 0,3.7 -4.55,5.55 -13.644,5.55 l 0.926,4.625 56.42,0 -0.926,-4.625 c -7.861,0 -14.068,-1.352 -18.613,-4.046 -4.549,-2.7 -9.984,-7.979 -16.302,-15.839 L 56.648,68.674 47.168,21.736 C 46.857,19.423 46.551,17.264 46.243,15.262 45.932,13.256 45.78,12.176 45.78,12.024 45.78,7.244 47.515,4.047 50.983,2.428 54.451,0.81 59.19,0 65.203,0 l -0.924,-4.624 -65.207,0 L 0,0 Z" /></g><g
           transform="translate(297.7622,575.6338)"
           id="g44"><path
             id="path46"
             style="fill:#37869f;fill-opacity:1;fill-rule:nonzero;stroke:none"
             d="m 0,0 c 8.83,-3 15.233,-7.708 19.209,-14.118 3.976,-6.415 4.717,-13.298 2.217,-20.656 -1.669,-4.909 -4.68,-8.536 -9.033,-10.885 -4.358,-2.354 -9.355,-2.568 -14.993,-0.652 -7.118,2.418 -11.179,8.171 -12.191,17.274 -1.013,9.097 -3.236,14.232 -6.67,15.399 -13.981,4.748 -33.89,-30.899 -59.719,-106.933 l -13.353,-35.683 c -5.249,-15.453 -10.8,-29.982 -16.654,-43.587 -5.853,-13.607 -12.904,-28.723 -21.151,-45.346 -8.251,-16.626 -17.049,-30.046 -26.404,-40.276 -9.358,-10.223 -20.051,-17.537 -32.073,-21.935 -12.028,-4.392 -23.317,-4.801 -33.862,-1.22 -8.582,2.916 -14.924,7.603 -19.027,14.056 -4.096,6.458 -4.901,13.361 -2.4,20.72 1.833,5.398 4.807,9.108 8.911,11.132 4.114,2.026 9.104,2.036 14.992,0.037 7.116,-2.42 11.218,-8.052 12.314,-16.906 1.096,-8.851 3.441,-14.026 7.036,-15.525 13.985,-4.748 34.473,32.613 61.472,112.085 l 11.232,30.656 c 5.001,14.718 10.321,28.773 15.973,42.179 5.643,13.402 12.611,28.477 20.902,45.225 8.286,16.742 17.254,30.457 26.9,41.132 9.644,10.678 20.36,18.253 32.141,22.734 C -22.448,3.382 -11.04,3.751 0,0" /></g><g
           transform="translate(764.125,541.0586)"
           id="g48"><path
             id="path50"
             style="fill:#8e9092;fill-opacity:1;fill-rule:nonzero;stroke:none"
             d="m 0,0 -0.225,0.216 c -2.531,-6.861 -5.92,-12.695 -10.162,-17.505 -4.242,-4.807 -8.449,-7.213 -12.617,-7.213 -4.914,0 -7.372,2.982 -7.372,8.946 0,1.042 0.076,2.013 0.226,2.908 0.15,0.894 0.598,3.02 1.351,6.375 l 5.371,23.372 0.434,3.47 c 0,1.192 -0.375,1.79 -1.118,1.79 -0.97,0 -2.256,-0.69 -3.859,-2.068 -1.604,-1.38 -3.597,-3.263 -5.983,-5.648 l -1.342,1.23 c 4.845,4.995 8.314,8.461 10.401,10.4 2.086,1.938 4.323,2.908 6.709,2.908 1.417,0 2.498,-0.485 3.246,-1.452 0.744,-0.97 1.117,-2.202 1.117,-3.692 0,-1.194 -0.076,-2.218 -0.224,-3.076 -0.149,-0.857 -0.411,-2.144 -0.782,-3.859 L -20.867,-9.74 c -0.526,-1.939 -0.785,-3.505 -0.785,-4.696 0,-0.97 0.204,-1.754 0.615,-2.349 0.408,-0.598 1.062,-0.894 1.958,-0.894 4.025,0 8.928,5.125 14.707,15.377 5.777,10.251 9.115,20.373 10.009,30.365 l 8.724,0 -8.051,-40.486 -0.449,-3.468 c 0,-1.192 0.372,-1.788 1.118,-1.788 0.968,0 2.274,0.707 3.916,2.123 1.637,1.416 3.578,3.281 5.816,5.592 l 1.453,-1.228 C 13.315,-16.19 9.85,-19.657 7.763,-21.595 c -2.088,-1.937 -4.325,-2.907 -6.711,-2.907 -1.269,0 -2.312,0.485 -3.132,1.454 -0.82,0.969 -1.231,2.202 -1.231,3.696 0,0.894 0.035,1.694 0.106,2.404 0.07,0.71 0.314,2.222 0.735,4.535 L 0,0 Z" /></g><g
           transform="translate(798.6133,558.1606)"
           id="g52"><path
             id="path54"
             style="fill:#8e9092;fill-opacity:1;fill-rule:nonzero;stroke:none"
             d="m 0,0 0.45,3.468 c 0,0.373 -0.111,0.762 -0.335,1.174 -0.223,0.41 -0.486,0.615 -0.784,0.615 -0.97,0 -2.255,-0.69 -3.857,-2.068 -1.605,-1.38 -3.598,-3.263 -5.984,-5.648 l -1.342,1.23 c 4.845,4.995 8.314,8.461 10.402,10.4 2.086,1.938 4.322,2.908 6.709,2.908 1.416,0 2.497,-0.485 3.245,-1.455 C 9.248,9.654 9.621,8.425 9.621,6.932 9.621,5.736 9.55,4.711 9.408,3.853 9.265,2.994 9.017,1.709 8.661,-0.007 l -3.487,-17.8 0.222,-0.199 c 1.633,4.1 3.749,8.5 6.346,13.198 2.599,4.696 5.515,8.685 8.744,11.968 3.229,3.279 6.587,4.919 10.078,4.919 4.306,0 6.459,-2.46 6.459,-7.38 0,-0.822 -0.055,-1.661 -0.169,-2.517 -0.111,-0.859 -0.353,-2.07 -0.726,-3.635 l -6.375,-28.072 c -0.374,-1.27 -0.56,-2.423 -0.56,-3.468 0,-0.373 0.094,-0.764 0.282,-1.175 0.183,-0.41 0.502,-0.613 0.949,-0.613 0.968,0 2.273,0.707 3.915,2.123 1.638,1.416 3.578,3.281 5.815,5.592 l 1.454,-1.228 c -4.848,-4.998 -8.314,-8.465 -10.401,-10.403 -2.088,-1.937 -4.325,-2.907 -6.711,-2.907 -1.343,0 -2.424,0.485 -3.243,1.456 -0.821,0.97 -1.232,2.203 -1.232,3.699 0,1.792 0.302,4.107 0.906,6.947 l 6.208,26.83 0.716,4.689 c 0,2.161 -0.822,3.24 -2.459,3.24 -3.954,0 -8.744,-5.779 -14.372,-17.336 C 5.39,-23.635 1.904,-33.105 0.562,-40.485 l -8.724,0 L 0,0 Z" /></g><g
           transform="translate(859.3438,522.2598)"
           id="g56"><path
             id="path58"
             style="fill:#8e9092;fill-opacity:1;fill-rule:nonzero;stroke:none"
             d="m 0,0 c 4.475,0 8.929,4.623 13.365,13.869 4.435,9.243 6.655,17.149 6.655,23.711 0,4.472 -1.941,6.71 -5.817,6.71 C 8.983,44.29 4.547,40.041 0.895,31.541 -2.76,23.04 -4.585,15.509 -4.585,8.947 -4.585,5.74 -4.121,3.448 -3.187,2.069 -2.257,0.688 -1.194,0 0,0 m 15.546,12.75 0,0.224 C 12.767,6.935 9.685,2.31 6.306,-0.894 2.926,-4.101 -0.529,-5.703 -4.06,-5.703 c -3.756,0 -6.442,1.343 -8.057,4.027 -1.615,2.683 -2.422,5.852 -2.422,9.506 0,7.38 2.669,15.917 8.011,25.611 5.34,9.692 11.633,14.538 18.878,14.538 2.615,0 4.576,-0.448 5.883,-1.343 1.308,-0.9 2.445,-2.058 3.417,-3.476 l 3.286,16.901 0.564,4.249 c 0,1.937 -0.689,3.279 -2.07,4.025 -1.38,0.746 -3.486,1.119 -6.319,1.119 l 0.335,1.901 18.791,1.791 L 22.815,6.375 22.369,2.908 c 0,-0.373 0.111,-0.764 0.335,-1.175 0.224,-0.41 0.521,-0.613 0.894,-0.613 1.193,0 2.945,1.117 5.257,3.355 2.31,2.236 3.803,3.69 4.474,4.36 L 34.782,7.606 C 29.935,2.609 26.469,-0.858 24.381,-2.796 c -2.088,-1.937 -4.324,-2.907 -6.709,-2.907 -1.343,0 -2.425,0.485 -3.245,1.454 -0.822,0.968 -1.229,2.199 -1.229,3.69 0,0.82 0.055,1.64 0.167,2.461 0.113,0.819 0.392,2.31 0.838,4.473 l 1.343,6.375 z" /></g><g
           transform="translate(913.3633,522.2598)"
           id="g60"><path
             id="path62"
             style="fill:#8e9092;fill-opacity:1;fill-rule:nonzero;stroke:none"
             d="m 0,0 c 4.25,0 8.593,4.418 13.03,13.253 4.435,8.836 6.654,16.646 6.654,23.432 0,2.162 -0.391,3.971 -1.174,5.424 -0.783,1.453 -2.182,2.181 -4.196,2.181 C 9.245,44.29 4.789,40.095 0.95,31.708 -2.892,23.319 -4.809,15.621 -4.809,8.612 c 0,-2.908 0.483,-5.07 1.455,-6.487 C -2.387,0.709 -1.269,0 0,0 m 15.211,12.078 0,0.226 C 12.805,7.606 10.122,3.43 7.154,-0.224 4.188,-3.877 0.523,-5.703 -3.832,-5.703 c -4.059,0 -6.895,1.303 -8.51,3.915 -1.613,2.609 -2.422,5.816 -2.422,9.618 0,7.156 2.721,15.639 8.165,25.443 5.443,9.804 11.781,14.706 19.013,14.706 2.608,0 4.529,-0.576 5.76,-1.732 1.23,-1.158 2.18,-2.592 2.851,-4.307 l 1.008,4.922 8.723,0 L 22.592,6.375 22.145,2.908 c 0,-0.373 0.112,-0.764 0.335,-1.175 0.224,-0.41 0.521,-0.613 0.894,-0.613 1.192,0 2.946,1.117 5.257,3.355 2.31,2.236 3.803,3.69 4.474,4.36 L 34.559,7.606 C 29.711,2.609 26.244,-0.858 24.157,-2.796 c -2.088,-1.937 -4.325,-2.907 -6.71,-2.907 -1.342,0 -2.425,0.485 -3.244,1.454 -0.821,0.968 -1.229,2.199 -1.229,3.69 0,0.82 0.056,1.64 0.168,2.461 0.112,0.819 0.39,2.31 0.837,4.473 l 1.232,5.703 z" /></g><g
           transform="translate(987.2881,519.1855)"
           id="g64"><path
             id="path66"
             style="fill:#8e9092;fill-opacity:1;fill-rule:nonzero;stroke:none"
             d="m 0,0 c -2.163,-0.876 -4.511,-1.531 -7.045,-1.972 -2.537,-0.438 -5.034,-0.657 -7.493,-0.657 -5.967,0 -10.7,1.638 -14.205,4.921 -3.506,3.279 -5.255,8.015 -5.255,14.205 0,9.02 2.328,17.035 6.988,24.045 4.66,7.007 11.353,10.512 20.077,10.512 4.25,0 7.845,-1.099 10.792,-3.298 2.945,-2.201 4.418,-4.828 4.418,-7.886 0,-1.493 -0.505,-2.777 -1.51,-3.857 C 5.76,34.93 4.436,34.392 2.796,34.392 c -2.984,0 -4.773,2.16 -5.366,6.485 -0.599,4.325 -2.462,6.487 -5.594,6.487 -4.848,0 -8.705,-2.996 -11.575,-8.982 -2.872,-5.986 -4.307,-12.402 -4.307,-19.243 0,-6.251 1.454,-10.714 4.362,-13.389 2.908,-2.679 6.971,-4.017 12.191,-4.017 1.566,0 3.057,0.124 4.474,0.371 1.415,0.249 2.684,0.499 3.803,0.747 L 0,0 Z" /></g><g
           transform="translate(1011.6689,586.9048)"
           id="g68"><path
             id="path70"
             style="fill:#8e9092;fill-opacity:1;fill-rule:nonzero;stroke:none"
             d="m 0,0 c 0,1.714 0.633,3.204 1.901,4.474 1.269,1.267 2.759,1.901 4.474,1.901 1.791,0 3.3,-0.616 4.529,-1.845 1.231,-1.231 1.847,-2.74 1.847,-4.53 0,-1.791 -0.616,-3.3 -1.847,-4.529 C 9.675,-5.76 8.166,-6.375 6.375,-6.375 4.66,-6.375 3.17,-5.779 1.901,-4.586 0.633,-3.394 0,-1.864 0,0 m 12.751,-57.039 c -4.897,-4.997 -8.4,-8.464 -10.51,-10.402 -2.11,-1.937 -4.37,-2.907 -6.779,-2.907 -1.356,0 -2.449,0.485 -3.278,1.454 -0.829,0.968 -1.243,2.199 -1.243,3.69 0,0.82 0.056,1.64 0.168,2.461 0.111,0.819 0.389,2.31 0.837,4.473 l 6.034,29.529 0.447,3.465 c 0,1.191 -0.334,1.789 -1.005,1.789 -0.968,0 -2.255,-0.69 -3.859,-2.068 -1.601,-1.381 -3.593,-3.263 -5.976,-5.649 l -1.343,1.231 c 4.845,4.994 8.314,8.461 10.402,10.4 2.085,1.938 4.323,2.907 6.709,2.907 1.342,0 2.386,-0.56 3.133,-1.679 0.744,-1.116 1.117,-2.534 1.117,-4.251 0,-0.524 -0.088,-1.345 -0.267,-2.464 -0.178,-1.117 -0.41,-2.35 -0.694,-3.691 L 0.608,-58.28 0.112,-61.74 c 0,-0.372 0.112,-0.764 0.335,-1.172 0.226,-0.41 0.522,-0.613 0.896,-0.613 1.191,0 2.943,1.117 5.258,3.355 2.308,2.236 3.8,3.69 4.473,4.36 l 1.677,-1.229 z" /></g><g
           transform="translate(1062.7813,590.707)"
           id="g72"><path
             id="path74"
             style="fill:#8e9092;fill-opacity:1;fill-rule:nonzero;stroke:none"
             d="m 0,0 c 0.967,1.863 1.845,3.113 2.626,3.747 0.784,0.633 2.071,0.952 3.86,0.952 0.967,0 1.825,-0.263 2.573,-0.784 0.744,-0.523 1.117,-1.231 1.117,-2.124 0,-1.045 -1.081,-2.797 -3.243,-5.258 l -8.276,-8.947 -4.809,0 L 0,0 Z m -14.429,-70.46 c 5.218,0 9.19,3.951 11.911,11.856 2.721,7.902 4.082,15.507 4.082,22.814 0,3.581 -0.597,6.413 -1.791,8.501 -1.191,2.087 -3.168,3.131 -5.925,3.131 -5.146,0 -9.134,-3.897 -11.967,-11.686 -2.836,-7.794 -4.249,-15.231 -4.249,-22.313 0,-4.177 0.724,-7.271 2.18,-9.283 1.453,-2.013 3.373,-3.02 5.759,-3.02 m -17.894,15.211 c 0,8.5 2.404,16.422 7.214,23.766 4.808,7.343 11.277,11.015 19.404,11.015 5.74,0 10.047,-1.787 12.916,-5.367 2.871,-3.58 4.307,-8.203 4.307,-13.868 0,-8.501 -2.368,-16.367 -7.101,-23.599 -4.736,-7.232 -11.093,-10.848 -19.069,-10.848 -5.892,0 -10.309,1.75 -13.254,5.255 -2.946,3.505 -4.417,8.054 -4.417,13.646" /></g><g
           transform="translate(1092.3008,558.1606)"
           id="g76"><path
             id="path78"
             style="fill:#8e9092;fill-opacity:1;fill-rule:nonzero;stroke:none"
             d="m 0,0 0.45,3.468 c 0,0.373 -0.111,0.762 -0.335,1.174 -0.224,0.41 -0.486,0.615 -0.783,0.615 -0.97,0 -2.256,-0.69 -3.858,-2.068 -1.605,-1.38 -3.598,-3.263 -5.984,-5.648 l -1.342,1.23 c 4.845,4.995 8.313,8.461 10.402,10.4 2.086,1.938 4.321,2.908 6.709,2.908 1.417,0 2.497,-0.485 3.244,-1.455 C 9.248,9.654 9.621,8.425 9.621,6.932 9.621,5.736 9.55,4.711 9.408,3.853 9.265,2.994 9.018,1.709 8.66,-0.007 l -3.485,-17.8 0.221,-0.199 c 1.632,4.1 3.748,8.5 6.346,13.198 2.599,4.696 5.514,8.685 8.743,11.968 3.231,3.279 6.588,4.919 10.078,4.919 4.307,0 6.46,-2.46 6.46,-7.38 0,-0.822 -0.056,-1.661 -0.169,-2.517 C 36.742,1.323 36.5,0.112 36.128,-1.453 l -6.374,-28.072 c -0.375,-1.27 -0.561,-2.423 -0.561,-3.468 0,-0.373 0.094,-0.764 0.281,-1.175 0.184,-0.41 0.503,-0.613 0.95,-0.613 0.968,0 2.273,0.707 3.915,2.123 1.638,1.416 3.578,3.281 5.816,5.592 l 1.453,-1.228 c -4.847,-4.998 -8.314,-8.465 -10.401,-10.403 -2.088,-1.937 -4.326,-2.907 -6.711,-2.907 -1.343,0 -2.423,0.485 -3.243,1.456 -0.821,0.97 -1.231,2.203 -1.231,3.699 0,1.792 0.3,4.107 0.904,6.947 l 6.209,26.83 0.716,4.689 c 0,2.161 -0.822,3.24 -2.46,3.24 -3.953,0 -8.744,-5.779 -14.372,-17.336 C 5.389,-23.635 1.904,-33.105 0.563,-40.485 l -8.725,0 L 0,0 Z" /></g><g
           transform="translate(733.8232,592.8867)"
           id="g80"><path
             id="path82"
             style="fill:#8e9092;fill-opacity:1;fill-rule:nonzero;stroke:none"
             d="m 0,0 c 2.677,-0.829 4.642,-2.192 5.891,-4.087 1.247,-1.896 1.525,-3.96 0.834,-6.192 -0.46,-1.49 -1.339,-2.604 -2.628,-3.347 -1.292,-0.743 -2.791,-0.847 -4.502,-0.317 -2.16,0.669 -3.427,2.366 -3.806,5.094 -0.379,2.727 -1.09,4.253 -2.131,4.575 -4.244,1.315 -9.937,-9.566 -17.085,-32.637 l -3.724,-10.838 c -1.453,-4.689 -3.003,-9.103 -4.654,-13.241 -1.647,-4.138 -3.646,-8.74 -5.99,-13.804 -2.345,-5.067 -4.879,-9.174 -7.608,-12.327 -2.733,-3.149 -5.888,-5.435 -9.467,-6.856 -3.581,-1.418 -6.972,-1.634 -10.171,-0.642 -2.603,0.806 -4.548,2.166 -5.834,4.071 -1.284,1.908 -1.583,3.978 -0.891,6.212 0.507,1.636 1.37,2.776 2.588,3.418 1.22,0.643 2.721,0.687 4.507,0.132 2.16,-0.669 3.44,-2.327 3.84,-4.982 0.403,-2.651 1.149,-4.188 2.241,-4.609 4.243,-1.315 10.102,10.085 17.571,34.199 l 3.129,9.31 c 1.384,4.466 2.868,8.736 4.457,12.812 1.588,4.076 3.561,8.664 5.917,13.767 2.355,5.101 4.941,9.297 7.755,12.586 2.81,3.29 5.97,5.655 9.477,7.097 C -6.777,0.835 -3.351,1.039 0,0" /></g><g
           transform="translate(691.2061,566.8921)"
           id="g84"><path
             id="path86"
             style="fill:none;stroke:#8e9092;stroke-width:4.40399981;stroke-linecap:round;stroke-linejoin:miter;stroke-miterlimit:4;stroke-dasharray:none;stroke-opacity:1"
             d="M 0,0 33.559,0" /></g><g
           transform="translate(230.4556,265.9395)"
           id="g88"><path
             id="path90"
             style="fill:#8e9092;fill-opacity:1;fill-rule:nonzero;stroke:none"
             d="m 0,0 c 1.899,0 3.203,0.345 3.911,1.035 0.707,0.691 1.251,1.968 1.631,3.833 l 4.557,22.684 c 0.069,0.414 0.13,0.81 0.181,1.19 0.052,0.38 0.095,0.708 0.13,0.985 0,1.069 -0.346,1.787 -1.036,2.149 -0.691,0.362 -1.657,0.544 -2.9,0.544 l 0.207,1.035 13.776,0 -0.208,-1.035 c -1.903,0 -3.21,-0.346 -3.919,-1.036 -0.709,-0.691 -1.254,-1.967 -1.635,-3.83 L 10.138,4.87 C 10.071,4.353 10.005,3.868 9.939,3.419 9.873,2.971 9.84,2.729 9.84,2.694 9.84,1.623 10.185,0.906 10.876,0.543 11.566,0.181 12.533,0 13.776,0 l -0.207,-1.036 -13.776,0 L 0,0 Z" /></g><g
           transform="translate(258.834,283.6514)"
           id="g92"><path
             id="path94"
             style="fill:#8e9092;fill-opacity:1;fill-rule:nonzero;stroke:none"
             d="m 0,0 0.208,1.605 c 0,0.172 -0.051,0.354 -0.155,0.543 -0.103,0.19 -0.225,0.286 -0.362,0.286 -0.449,0 -1.045,-0.32 -1.787,-0.958 -0.743,-0.64 -1.666,-1.511 -2.771,-2.616 l -0.621,0.57 c 2.244,2.312 3.849,3.918 4.816,4.816 0.966,0.898 2.002,1.347 3.108,1.347 0.655,0 1.156,-0.225 1.502,-0.674 C 4.282,4.47 4.456,3.9 4.456,3.209 4.456,2.655 4.422,2.181 4.356,1.783 4.29,1.386 4.175,0.79 4.01,-0.005 L 2.396,-8.247 2.499,-8.339 c 0.755,1.899 1.735,3.937 2.939,6.111 1.203,2.176 2.553,4.022 4.048,5.542 1.495,1.519 3.051,2.279 4.667,2.279 1.993,0 2.991,-1.14 2.991,-3.418 0,-0.381 -0.026,-0.769 -0.078,-1.165 -0.052,-0.398 -0.164,-0.958 -0.337,-1.684 l -2.952,-12.999 c -0.173,-0.587 -0.258,-1.122 -0.258,-1.605 0,-0.173 0.043,-0.355 0.129,-0.544 0.086,-0.19 0.233,-0.284 0.44,-0.284 0.449,0 1.053,0.327 1.813,0.983 0.759,0.655 1.657,1.519 2.693,2.59 l 0.673,-0.571 c -2.245,-2.313 -3.85,-3.918 -4.816,-4.815 -0.968,-0.897 -2.003,-1.347 -3.108,-1.347 -0.621,0 -1.122,0.225 -1.502,0.674 -0.38,0.45 -0.569,1.021 -0.569,1.713 0,0.829 0.139,1.901 0.418,3.217 l 2.875,12.424 0.332,2.172 c 0,1 -0.38,1.5 -1.139,1.5 -1.831,0 -4.049,-2.676 -6.655,-8.028 C 2.496,-10.945 0.882,-15.33 0.26,-18.748 l -4.039,0 L 0,0 Z" /></g><g
           transform="translate(291.9683,269.6084)"
           id="g96"><path
             id="path98"
             style="fill:#8e9092;fill-opacity:1;fill-rule:nonzero;stroke:none"
             d="m 0,0 c -0.2,-0.793 -0.299,-1.446 -0.299,-1.963 0,-0.586 0.207,-0.878 0.621,-0.878 1.484,0 3.668,1.717 6.552,5.154 2.882,3.434 4.324,6.723 4.324,9.865 0,1.001 -0.233,1.985 -0.699,2.952 -0.466,0.967 -0.699,1.657 -0.699,2.071 0,0.622 0.233,1.183 0.699,1.684 0.466,0.5 1.062,0.751 1.787,0.751 0.862,0 1.475,-0.337 1.838,-1.01 0.362,-0.674 0.544,-1.425 0.544,-2.253 0,-4.661 -2.003,-9.426 -6.008,-14.294 -4.005,-4.868 -7.786,-7.302 -11.342,-7.302 -0.517,0 -0.958,0.164 -1.32,0.492 -0.363,0.328 -0.544,0.836 -0.544,1.528 0,0.31 0.034,0.699 0.104,1.165 0.068,0.466 0.137,0.872 0.207,1.217 l 3.004,14.864 0.155,1.605 c 0,0.552 -0.173,0.829 -0.518,0.829 -0.552,0 -1.364,-0.518 -2.434,-1.554 -1.071,-1.036 -1.761,-1.709 -2.072,-2.02 l -0.673,0.57 c 1.173,1.243 2.365,2.503 3.574,3.781 1.691,1.587 3.037,2.382 4.039,2.382 0.725,0 1.295,-0.277 1.709,-0.829 0.414,-0.553 0.621,-1.244 0.621,-2.073 0,-0.38 -0.084,-1.01 -0.252,-1.891 C 2.75,13.962 2.632,13.331 2.564,12.952 L 0,0 Z" /></g><g
           transform="translate(324.2959,281.0098)"
           id="g100"><path
             id="path102"
             style="fill:#8e9092;fill-opacity:1;fill-rule:nonzero;stroke:none"
             d="M 0,0 C 1.38,0 2.563,0.259 3.547,0.776 4.531,1.295 5.023,2.278 5.023,3.729 5.023,4.522 4.721,5.187 4.117,5.723 3.513,6.258 2.745,6.525 1.813,6.525 0.052,6.525 -1.347,5.826 -2.382,4.428 -3.418,3.029 -4.091,1.554 -4.402,0 L 0,0 Z m 5.438,-15.434 c -1.071,-0.344 -2.175,-0.629 -3.315,-0.854 -1.139,-0.224 -2.4,-0.336 -3.78,-0.336 -2.625,0 -4.679,0.751 -6.163,2.253 -1.485,1.501 -2.227,3.736 -2.227,6.706 0,4.178 1.018,7.872 3.055,11.083 2.037,3.211 5.213,4.816 9.53,4.816 1.864,0 3.418,-0.406 4.661,-1.216 C 8.441,6.206 9.063,4.988 9.063,3.366 9.063,1.777 8.501,0.552 7.38,-0.311 6.257,-1.174 4.073,-1.605 0.829,-1.605 l -5.594,0 c -0.173,-0.861 -0.328,-1.721 -0.466,-2.581 -0.138,-0.859 -0.207,-1.719 -0.207,-2.579 0,-2.441 0.561,-4.358 1.683,-5.751 1.122,-1.392 3.151,-2.088 6.086,-2.088 1.208,0 2.33,0.207 3.366,0.621 l -0.259,-1.451 z" /></g><g
           transform="translate(355.3174,282.874)"
           id="g104"><path
             id="path106"
             style="fill:#8e9092;fill-opacity:1;fill-rule:nonzero;stroke:none"
             d="m 0,0 c 0,1.312 -0.389,2.416 -1.166,3.314 -0.776,0.898 -1.924,1.347 -3.443,1.347 -1.106,0 -2.055,-0.319 -2.849,-0.958 -0.794,-0.64 -1.191,-1.598 -1.191,-2.874 0,-1.45 1.484,-3.107 4.454,-4.972 2.969,-1.865 4.454,-4.005 4.454,-6.421 0,-2.66 -1.002,-4.645 -3.004,-5.957 -2.003,-1.312 -4.609,-1.967 -7.82,-1.967 -1.347,0 -2.417,0.077 -3.211,0.232 -0.795,0.155 -1.657,0.389 -2.59,0.699 l 0.725,5.749 1.088,0 c 0,-1.796 0.44,-3.073 1.321,-3.833 0.88,-0.759 2.045,-1.138 3.496,-1.138 1.484,0 2.796,0.448 3.936,1.346 1.139,0.898 1.709,2.054 1.709,3.47 0,1.519 -1.485,3.211 -4.454,5.075 -2.97,1.865 -4.454,3.884 -4.454,6.06 0,2.312 0.888,4.091 2.667,5.334 1.778,1.243 3.944,1.864 6.499,1.864 1.243,0 2.27,-0.078 3.082,-0.233 C 0.06,5.981 0.932,5.749 1.864,5.438 L 1.087,0 0,0 Z" /></g><g
           transform="translate(377.0684,270.5479)"
           id="g108"><path
             id="path110"
             style="fill:#8e9092;fill-opacity:1;fill-rule:nonzero;stroke:none"
             d="m 0,0 c -1.569,-1.727 -3.05,-3.185 -4.445,-4.376 -1.395,-1.19 -2.701,-1.786 -3.922,-1.786 -0.697,0 -1.247,0.216 -1.648,0.647 -0.401,0.433 -0.601,1.011 -0.601,1.738 0,0.414 0.02,0.785 0.062,1.114 0.04,0.328 0.183,1.028 0.429,2.1 l 3.506,17.134 -4.308,0.002 0.311,1.606 c 2.348,0 4.186,0.612 5.515,1.838 1.329,1.225 2.339,3.185 3.03,5.878 l 1.346,0 -1.555,-7.716 6.786,0 -0.311,-1.606 -6.747,-0.008 -3.506,-17.134 c -0.07,-0.277 -0.13,-0.596 -0.182,-0.958 -0.052,-0.363 -0.078,-0.578 -0.078,-0.648 0,-0.173 0.078,-0.354 0.233,-0.544 0.155,-0.189 0.336,-0.284 0.544,-0.284 0.482,0 1.189,0.37 2.122,1.113 0.932,0.743 1.846,1.562 2.744,2.46 L 0,0 Z" /></g><g
           transform="translate(391.7241,296.9609)"
           id="g112"><path
             id="path114"
             style="fill:#8e9092;fill-opacity:1;fill-rule:nonzero;stroke:none"
             d="M 0,0 C 0,0.794 0.293,1.483 0.88,2.071 1.467,2.658 2.157,2.952 2.952,2.952 3.781,2.952 4.48,2.667 5.049,2.098 5.619,1.527 5.904,0.828 5.904,0 5.904,-0.829 5.619,-1.528 5.049,-2.098 4.48,-2.667 3.781,-2.952 2.952,-2.952 2.157,-2.952 1.467,-2.677 0.88,-2.124 0.293,-1.571 0,-0.863 0,0 m 5.904,-26.413 c -2.267,-2.314 -3.89,-3.919 -4.866,-4.816 -0.977,-0.897 -2.023,-1.346 -3.14,-1.346 -0.627,0 -1.134,0.224 -1.518,0.673 -0.383,0.448 -0.575,1.018 -0.575,1.709 0,0.38 0.026,0.758 0.078,1.139 0.052,0.379 0.18,1.07 0.388,2.072 l 2.793,13.672 0.208,1.606 c 0,0.552 -0.155,0.828 -0.466,0.828 -0.449,0 -1.044,-0.319 -1.786,-0.958 -0.742,-0.64 -1.665,-1.511 -2.769,-2.615 l -0.621,0.569 c 2.244,2.313 3.849,3.918 4.816,4.817 0.967,0.897 2.002,1.346 3.108,1.346 0.621,0 1.104,-0.26 1.45,-0.777 0.345,-0.519 0.518,-1.175 0.518,-1.969 0,-0.243 -0.042,-0.623 -0.124,-1.141 -0.083,-0.518 -0.19,-1.088 -0.322,-1.71 L 0.282,-26.987 0.052,-28.59 c 0,-0.172 0.052,-0.353 0.155,-0.543 0.104,-0.188 0.241,-0.283 0.415,-0.283 0.551,0 1.363,0.518 2.434,1.554 1.069,1.035 1.76,1.709 2.071,2.019 l 0.777,-0.57 z" /></g><g
           transform="translate(411.5586,267.0264)"
           id="g116"><path
             id="path118"
             style="fill:#8e9092;fill-opacity:1;fill-rule:nonzero;stroke:none"
             d="m 0,0 c 2.175,0 4.29,2.149 6.344,6.448 2.054,4.298 3.081,7.949 3.081,10.953 0,1.001 -0.284,1.769 -0.854,2.305 -0.57,0.535 -1.183,0.803 -1.839,0.803 -2.106,0 -4.091,-1.96 -5.955,-5.878 C -1.088,10.712 -2.02,7.182 -2.02,4.04 -2.02,2.59 -1.831,1.554 -1.45,0.933 -1.071,0.311 -0.587,0 0,0 M 9.581,-2.641 C 8.924,-5.886 7.69,-8.433 5.878,-10.28 4.065,-12.126 1.139,-13.051 -2.9,-13.051 c -1.727,0 -3.117,0.242 -4.169,0.726 -1.054,0.483 -1.58,1.277 -1.58,2.382 0,0.725 0.232,1.32 0.698,1.787 0.465,0.466 1.025,0.699 1.68,0.699 1,0 1.921,-0.647 2.766,-1.942 0.844,-1.295 1.853,-1.943 3.024,-1.943 1.723,0 3.041,0.899 3.955,2.696 0.913,1.795 1.594,3.799 2.042,6.01 L 7.278,5.909 7.302,6.008 C 6.258,3.694 5.067,1.675 3.728,-0.052 2.389,-1.778 0.606,-2.641 -1.62,-2.641 c -1.879,0 -3.184,0.621 -3.914,1.865 -0.73,1.243 -1.095,2.778 -1.095,4.609 0,3.349 1.269,7.25 3.806,11.704 2.538,4.454 5.464,6.681 8.779,6.681 1.069,0 1.924,-0.207 2.563,-0.621 0.639,-0.415 1.166,-0.916 1.58,-1.502 l 0.311,1.605 4.039,0 -4.868,-24.341 z" /></g><g
           transform="translate(439.7837,267.0264)"
           id="g120"><path
             id="path122"
             style="fill:#8e9092;fill-opacity:1;fill-rule:nonzero;stroke:none"
             d="m 0,0 c 1.968,0 3.979,2.046 6.033,6.138 2.054,4.091 3.082,7.707 3.082,10.849 0,1.001 -0.181,1.838 -0.544,2.512 -0.363,0.673 -1.01,1.01 -1.942,1.01 -2.348,0 -4.411,-1.943 -6.189,-5.826 -1.778,-3.885 -2.667,-7.45 -2.667,-10.695 0,-1.346 0.224,-2.348 0.673,-3.004 C -1.105,0.328 -0.587,0 0,0 m 7.043,5.594 0,0.103 C 5.93,3.521 4.687,1.588 3.313,-0.104 1.939,-1.795 0.243,-2.641 -1.775,-2.641 c -1.879,0 -3.192,0.604 -3.94,1.813 -0.747,1.208 -1.121,2.692 -1.121,4.454 0,3.314 1.26,7.241 3.78,11.781 2.52,4.54 5.455,6.811 8.805,6.811 1.208,0 2.097,-0.268 2.667,-0.803 0.569,-0.536 1.009,-1.2 1.32,-1.994 l 0.466,2.279 4.04,0 L 10.461,2.952 10.254,1.347 c 0,-0.173 0.052,-0.355 0.156,-0.544 0.103,-0.19 0.24,-0.284 0.414,-0.284 0.551,0 1.364,0.517 2.434,1.553 1.07,1.035 1.761,1.709 2.072,2.02 L 16.003,3.521 C 13.758,1.208 12.152,-0.397 11.187,-1.294 10.219,-2.191 9.184,-2.641 8.079,-2.641 c -0.621,0 -1.122,0.225 -1.502,0.673 -0.38,0.448 -0.57,1.019 -0.57,1.709 0,0.38 0.026,0.759 0.078,1.14 0.052,0.379 0.182,1.069 0.389,2.071 l 0.569,2.642 z" /></g><g
           transform="translate(479.1431,265.6035)"
           id="g124"><path
             id="path126"
             style="fill:#8e9092;fill-opacity:1;fill-rule:nonzero;stroke:none"
             d="m 0,0 c -1.001,-0.406 -2.089,-0.71 -3.263,-0.914 -1.174,-0.202 -2.33,-0.304 -3.469,-0.304 -2.763,0 -4.955,0.759 -6.578,2.279 -1.623,1.518 -2.434,3.71 -2.434,6.577 0,4.176 1.079,7.888 3.237,11.134 2.157,3.246 5.257,4.869 9.296,4.869 1.968,0 3.633,-0.51 4.998,-1.528 1.363,-1.019 2.046,-2.236 2.046,-3.651 0,-0.691 -0.233,-1.287 -0.7,-1.787 -0.466,-0.501 -1.079,-0.751 -1.838,-0.751 -1.381,0 -2.21,1.001 -2.486,3.004 -0.277,2.002 -1.14,3.004 -2.589,3.004 -2.245,0 -4.032,-1.387 -5.361,-4.16 -1.329,-2.772 -1.993,-5.743 -1.993,-8.911 0,-2.893 0.673,-4.96 2.019,-6.2 1.347,-1.239 3.228,-1.859 5.645,-1.859 0.725,0 1.416,0.057 2.072,0.172 0.655,0.115 1.243,0.231 1.761,0.345 L 0,0 Z" /></g><g
           transform="translate(495.5601,296.9609)"
           id="g128"><path
             id="path130"
             style="fill:#8e9092;fill-opacity:1;fill-rule:nonzero;stroke:none"
             d="M 0,0 C 0,0.794 0.293,1.483 0.88,2.071 1.467,2.658 2.157,2.952 2.952,2.952 3.781,2.952 4.48,2.667 5.049,2.098 5.619,1.527 5.904,0.828 5.904,0 5.904,-0.829 5.619,-1.528 5.049,-2.098 4.48,-2.667 3.781,-2.952 2.952,-2.952 2.157,-2.952 1.467,-2.677 0.88,-2.124 0.293,-1.571 0,-0.863 0,0 m 5.904,-26.413 c -2.267,-2.314 -3.89,-3.919 -4.866,-4.816 -0.977,-0.897 -2.023,-1.346 -3.14,-1.346 -0.627,0 -1.134,0.224 -1.518,0.673 -0.383,0.448 -0.575,1.018 -0.575,1.709 0,0.38 0.026,0.758 0.078,1.139 0.052,0.379 0.18,1.07 0.388,2.072 l 2.793,13.672 0.208,1.606 c 0,0.552 -0.155,0.828 -0.466,0.828 -0.449,0 -1.044,-0.319 -1.786,-0.958 -0.742,-0.64 -1.665,-1.511 -2.769,-2.615 l -0.621,0.569 c 2.244,2.313 3.849,3.918 4.816,4.817 0.967,0.897 2.002,1.346 3.108,1.346 0.621,0 1.104,-0.26 1.45,-0.777 0.345,-0.519 0.518,-1.175 0.518,-1.969 0,-0.243 -0.042,-0.623 -0.124,-1.141 -0.083,-0.518 -0.19,-1.088 -0.322,-1.71 L 0.282,-26.987 0.052,-28.59 c 0,-0.172 0.052,-0.353 0.155,-0.543 0.104,-0.188 0.241,-0.283 0.415,-0.283 0.551,0 1.363,0.518 2.434,1.554 1.069,1.035 1.76,1.709 2.071,2.019 l 0.777,-0.57 z" /></g><g
           transform="translate(524.354,298.7217)"
           id="g132"><path
             id="path134"
             style="fill:#8e9092;fill-opacity:1;fill-rule:nonzero;stroke:none"
             d="M 0,0 C 0.448,0.862 0.854,1.441 1.217,1.734 1.58,2.027 2.175,2.175 3.003,2.175 3.452,2.175 3.849,2.054 4.195,1.813 4.54,1.57 4.713,1.243 4.713,0.828 4.713,0.345 4.212,-0.466 3.211,-1.605 l -3.833,-4.144 -2.227,0 L 0,0 Z m -6.681,-32.627 c 2.416,0 4.255,1.829 5.515,5.489 1.261,3.659 1.891,7.181 1.891,10.566 0,1.657 -0.277,2.968 -0.829,3.935 -0.552,0.966 -1.468,1.45 -2.745,1.45 -2.382,0 -4.229,-1.804 -5.541,-5.412 -1.313,-3.608 -1.968,-7.051 -1.968,-10.332 0,-1.933 0.337,-3.366 1.01,-4.298 0.673,-0.932 1.562,-1.398 2.667,-1.398 m -8.286,7.043 c 0,3.936 1.113,7.605 3.34,11.005 2.227,3.4 5.222,5.101 8.985,5.101 2.659,0 4.653,-0.829 5.982,-2.486 1.329,-1.657 1.994,-3.798 1.994,-6.421 0,-3.936 -1.096,-7.579 -3.289,-10.928 -2.192,-3.349 -5.135,-5.023 -8.83,-5.023 -2.727,0 -4.773,0.811 -6.136,2.434 -1.365,1.623 -2.046,3.728 -2.046,6.318" /></g><g
           transform="translate(543.1514,283.6514)"
           id="g136"><path
             id="path138"
             style="fill:#8e9092;fill-opacity:1;fill-rule:nonzero;stroke:none"
             d="m 0,0 0.208,1.605 c 0,0.172 -0.051,0.354 -0.155,0.543 -0.103,0.19 -0.225,0.286 -0.362,0.286 -0.449,0 -1.045,-0.32 -1.787,-0.958 -0.743,-0.64 -1.666,-1.511 -2.771,-2.616 l -0.621,0.57 c 2.244,2.312 3.849,3.918 4.816,4.816 0.966,0.898 2.002,1.347 3.108,1.347 0.655,0 1.156,-0.225 1.502,-0.674 C 4.282,4.47 4.456,3.9 4.456,3.209 4.456,2.655 4.422,2.181 4.356,1.783 4.29,1.386 4.175,0.79 4.01,-0.005 L 2.396,-8.247 2.499,-8.339 c 0.755,1.899 1.735,3.937 2.939,6.111 1.203,2.176 2.553,4.022 4.048,5.542 1.495,1.519 3.051,2.279 4.667,2.279 1.993,0 2.991,-1.14 2.991,-3.418 0,-0.381 -0.026,-0.769 -0.078,-1.165 -0.052,-0.398 -0.164,-0.958 -0.337,-1.684 l -2.952,-12.999 c -0.173,-0.587 -0.258,-1.122 -0.258,-1.605 0,-0.173 0.043,-0.355 0.129,-0.544 0.086,-0.19 0.233,-0.284 0.44,-0.284 0.449,0 1.053,0.327 1.813,0.983 0.759,0.655 1.657,1.519 2.693,2.59 l 0.673,-0.571 c -2.245,-2.313 -3.85,-3.918 -4.816,-4.815 -0.968,-0.897 -2.003,-1.347 -3.108,-1.347 -0.621,0 -1.122,0.225 -1.502,0.674 -0.38,0.45 -0.569,1.021 -0.569,1.713 0,0.829 0.139,1.901 0.418,3.217 l 2.875,12.424 0.332,2.172 c 0,1 -0.38,1.5 -1.139,1.5 -1.831,0 -4.049,-2.676 -6.655,-8.028 C 2.496,-10.945 0.882,-15.33 0.26,-18.748 l -4.039,0 L 0,0 Z" /></g><g
           transform="translate(602.1357,266.9219)"
           id="g140"><path
             id="path142"
             style="fill:#8e9092;fill-opacity:1;fill-rule:nonzero;stroke:none"
             d="m 0,0 c 1.45,2.176 2.884,4.688 4.301,7.536 1.416,2.848 2.125,5.326 2.125,7.432 0,0.829 -0.26,1.743 -0.778,2.745 -0.517,1.001 -0.776,1.743 -0.776,2.227 0,0.622 0.259,1.173 0.776,1.658 0.518,0.482 1.123,0.724 1.813,0.724 0.794,0 1.415,-0.276 1.864,-0.829 0.448,-0.552 0.674,-1.312 0.674,-2.278 0,-3.384 -1.425,-7.622 -4.272,-12.714 -2.849,-5.094 -6.138,-9.607 -9.867,-13.543 -3.729,-3.937 -6.663,-5.904 -8.804,-5.904 -0.76,0 -1.39,0.233 -1.89,0.699 -0.5,0.466 -0.751,1.045 -0.751,1.735 0,0.691 0.225,1.278 0.673,1.761 0.449,0.483 1.018,0.725 1.709,0.725 0.552,0 1.157,-0.233 1.813,-0.7 0.656,-0.465 1.14,-0.699 1.45,-0.699 0.829,0 1.908,0.605 3.238,1.814 1.328,1.209 2.46,2.399 3.391,3.573 L -6.676,15.9 c -0.381,2.141 -0.95,3.211 -1.709,3.211 -0.381,0 -0.839,-0.173 -1.374,-0.517 -0.535,-0.346 -1.579,-1.157 -3.133,-2.435 l -0.621,0.674 c 1.45,1.312 2.899,2.555 4.349,3.729 1.45,1.172 2.538,1.76 3.263,1.76 0.794,0 1.406,-0.354 1.838,-1.061 0.431,-0.708 0.751,-1.666 0.959,-2.874 L 0,0 Z" /></g><g
           transform="translate(646.626,270.8076)"
           id="g144"><path
             id="path146"
             style="fill:#8e9092;fill-opacity:1;fill-rule:nonzero;stroke:none"
             d="m 0,0 c -0.104,-0.484 -0.189,-0.916 -0.26,-1.295 -0.069,-0.381 -0.103,-0.674 -0.103,-0.881 0,-0.587 0.293,-1.018 0.881,-1.295 0.586,-0.276 1.432,-0.414 2.537,-0.414 5.558,0 9.538,2.002 11.937,6.008 2.4,4.005 3.6,8.752 3.6,14.242 0,3.383 -0.708,5.93 -2.123,7.639 -1.416,1.709 -3.799,2.563 -7.148,2.563 -1.622,0 -2.753,-0.285 -3.39,-0.854 C 5.291,25.144 4.834,24.134 4.558,22.684 L 0,0 Z m -10.202,-4.868 c 1.937,0 3.261,0.336 3.97,1.009 0.709,0.672 1.254,1.958 1.635,3.856 l 4.558,22.684 c 0.066,0.414 0.124,0.81 0.174,1.191 0.049,0.38 0.091,0.708 0.124,0.984 0,1.072 -0.346,1.789 -1.036,2.151 -0.692,0.362 -1.675,0.545 -2.952,0.545 l 0.207,1.035 13.465,0 c 4.177,0 7.518,-0.924 10.021,-2.771 2.503,-1.847 3.755,-5.049 3.755,-9.606 0,-8.011 -1.865,-13.698 -5.593,-17.064 -3.73,-3.367 -9.046,-5.05 -15.951,-5.05 l -12.585,0 0.208,1.036 z" /></g><g
           transform="translate(688.2109,281.0098)"
           id="g148"><path
             id="path150"
             style="fill:#8e9092;fill-opacity:1;fill-rule:nonzero;stroke:none"
             d="M 0,0 C 1.381,0 2.563,0.259 3.548,0.776 4.532,1.295 5.023,2.278 5.023,3.729 5.023,4.522 4.722,5.187 4.117,5.723 3.513,6.258 2.745,6.525 1.813,6.525 0.052,6.525 -1.346,5.826 -2.382,4.428 -3.418,3.029 -4.091,1.554 -4.401,0 L 0,0 Z m 5.438,-15.434 c -1.071,-0.344 -2.175,-0.629 -3.314,-0.854 -1.14,-0.224 -2.4,-0.336 -3.781,-0.336 -2.624,0 -4.679,0.751 -6.162,2.253 -1.486,1.501 -2.228,3.736 -2.228,6.706 0,4.178 1.019,7.872 3.056,11.083 2.037,3.211 5.213,4.816 9.529,4.816 1.864,0 3.418,-0.406 4.661,-1.216 C 8.442,6.206 9.063,4.988 9.063,3.366 9.063,1.777 8.502,0.552 7.38,-0.311 6.258,-1.174 4.074,-1.605 0.829,-1.605 l -5.594,0 c -0.173,-0.861 -0.328,-1.721 -0.465,-2.581 -0.139,-0.859 -0.208,-1.719 -0.208,-2.579 0,-2.441 0.561,-4.358 1.684,-5.751 1.121,-1.392 3.15,-2.088 6.085,-2.088 1.208,0 2.33,0.207 3.366,0.621 l -0.259,-1.451 z" /></g><g
           transform="translate(719.2324,282.874)"
           id="g152"><path
             id="path154"
             style="fill:#8e9092;fill-opacity:1;fill-rule:nonzero;stroke:none"
             d="m 0,0 c 0,1.312 -0.388,2.416 -1.165,3.314 -0.776,0.898 -1.925,1.347 -3.444,1.347 -1.105,0 -2.054,-0.319 -2.848,-0.958 -0.795,-0.64 -1.191,-1.598 -1.191,-2.874 0,-1.45 1.484,-3.107 4.454,-4.972 2.968,-1.865 4.453,-4.005 4.453,-6.421 0,-2.66 -1.001,-4.645 -3.003,-5.957 -2.003,-1.312 -4.61,-1.967 -7.82,-1.967 -1.347,0 -2.417,0.077 -3.211,0.232 -0.795,0.155 -1.658,0.389 -2.59,0.699 l 0.725,5.749 1.087,0 c 0,-1.796 0.441,-3.073 1.322,-3.833 0.879,-0.759 2.044,-1.138 3.495,-1.138 1.484,0 2.797,0.448 3.936,1.346 1.139,0.898 1.709,2.054 1.709,3.47 0,1.519 -1.485,3.211 -4.454,5.075 -2.97,1.865 -4.454,3.884 -4.454,6.06 0,2.312 0.889,4.091 2.667,5.334 1.778,1.243 3.944,1.864 6.5,1.864 1.243,0 2.269,-0.078 3.081,-0.233 C 0.061,5.981 0.933,5.749 1.864,5.438 L 1.088,0 0,0 Z" /></g><g
           transform="translate(735.6494,267.0264)"
           id="g156"><path
             id="path158"
             style="fill:#8e9092;fill-opacity:1;fill-rule:nonzero;stroke:none"
             d="m 0,0 c 1.968,0 3.979,2.046 6.033,6.138 2.054,4.091 3.082,7.707 3.082,10.849 0,1.001 -0.181,1.838 -0.544,2.512 -0.363,0.673 -1.009,1.01 -1.942,1.01 -2.349,0 -4.411,-1.943 -6.189,-5.826 -1.779,-3.885 -2.667,-7.45 -2.667,-10.695 0,-1.346 0.224,-2.348 0.673,-3.004 C -1.105,0.328 -0.588,0 0,0 m 7.043,5.594 0,0.103 C 5.93,3.521 4.687,1.588 3.313,-0.104 1.938,-1.795 0.242,-2.641 -1.774,-2.641 c -1.879,0 -3.193,0.604 -3.941,1.813 -0.747,1.208 -1.121,2.692 -1.121,4.454 0,3.314 1.26,7.241 3.78,11.781 2.52,4.54 5.455,6.811 8.804,6.811 1.209,0 2.098,-0.268 2.668,-0.803 0.569,-0.536 1.01,-1.2 1.32,-1.994 l 0.466,2.279 4.04,0 L 10.461,2.952 10.254,1.347 c 0,-0.173 0.052,-0.355 0.155,-0.544 0.104,-0.19 0.241,-0.284 0.415,-0.284 0.552,0 1.364,0.517 2.434,1.553 1.07,1.035 1.761,1.709 2.071,2.02 L 16.003,3.521 C 13.758,1.208 12.152,-0.397 11.187,-1.294 10.22,-2.191 9.184,-2.641 8.079,-2.641 c -0.622,0 -1.122,0.225 -1.502,0.673 -0.38,0.448 -0.569,1.019 -0.569,1.709 0,0.38 0.025,0.759 0.077,1.14 0.052,0.379 0.182,1.069 0.389,2.071 l 0.569,2.642 z" /></g><g
           transform="translate(764.5479,283.6514)"
           id="g160"><path
             id="path162"
             style="fill:#8e9092;fill-opacity:1;fill-rule:nonzero;stroke:none"
             d="m 0,0 0.207,1.605 c 0,0.172 -0.052,0.354 -0.155,0.543 -0.104,0.19 -0.242,0.286 -0.414,0.286 -0.553,0 -1.365,-0.518 -2.435,-1.554 -1.07,-1.036 -1.761,-1.709 -2.071,-2.02 l -0.673,0.57 c 2.244,2.312 3.85,3.918 4.816,4.816 0.966,0.898 2.002,1.347 3.108,1.347 0.621,0 1.121,-0.225 1.502,-0.673 C 4.264,4.471 4.454,3.9 4.454,3.211 4.454,2.692 4.428,2.261 4.376,1.916 4.324,1.57 4.212,0.932 4.04,0 L 3.263,-3.678 3.366,-3.781 c 1.036,2.486 2.166,4.669 3.393,6.552 1.224,1.88 2.701,2.822 4.428,2.822 0.793,0 1.406,-0.234 1.838,-0.699 C 13.456,4.428 13.673,3.849 13.673,3.158 13.673,2.434 13.439,1.82 12.974,1.32 12.507,0.819 11.929,0.569 11.238,0.569 10.789,0.569 10.323,0.716 9.84,1.01 9.356,1.303 9.063,1.449 8.96,1.449 8.027,1.449 6.655,-0.372 4.843,-4.014 3.03,-7.657 1.502,-12.568 0.259,-18.748 l -4.039,0 L 0,0 Z" /></g><g
           transform="translate(787.8525,283.6514)"
           id="g164"><path
             id="path166"
             style="fill:#8e9092;fill-opacity:1;fill-rule:nonzero;stroke:none"
             d="m 0,0 0.207,1.605 c 0,0.172 -0.052,0.354 -0.155,0.543 -0.104,0.19 -0.242,0.286 -0.414,0.286 -0.553,0 -1.365,-0.518 -2.435,-1.554 -1.07,-1.036 -1.761,-1.709 -2.071,-2.02 l -0.673,0.57 c 2.244,2.312 3.85,3.918 4.816,4.816 0.966,0.898 2.002,1.347 3.108,1.347 0.621,0 1.121,-0.225 1.502,-0.673 C 4.264,4.471 4.454,3.9 4.454,3.211 4.454,2.692 4.428,2.261 4.376,1.916 4.324,1.57 4.212,0.932 4.04,0 L 3.263,-3.678 3.366,-3.781 c 1.036,2.486 2.166,4.669 3.393,6.552 1.224,1.88 2.701,2.822 4.428,2.822 0.793,0 1.406,-0.234 1.838,-0.699 C 13.456,4.428 13.673,3.849 13.673,3.158 13.673,2.434 13.439,1.82 12.974,1.32 12.507,0.819 11.929,0.569 11.238,0.569 10.789,0.569 10.323,0.716 9.84,1.01 9.356,1.303 9.063,1.449 8.96,1.449 8.027,1.449 6.655,-0.372 4.843,-4.014 3.03,-7.657 1.502,-12.568 0.259,-18.748 l -4.039,0 L 0,0 Z" /></g><g
           transform="translate(814.4717,266.0947)"
           id="g168"><path
             id="path170"
             style="fill:#8e9092;fill-opacity:1;fill-rule:nonzero;stroke:none"
             d="m 0,0 c 2.417,0 4.255,1.829 5.516,5.489 1.259,3.659 1.89,7.181 1.89,10.566 0,1.657 -0.277,2.968 -0.829,3.935 -0.553,0.966 -1.468,1.45 -2.744,1.45 -2.383,0 -4.23,-1.804 -5.542,-5.412 C -3.021,12.42 -3.677,8.977 -3.677,5.696 -3.677,3.763 -3.34,2.33 -2.667,1.398 -1.993,0.466 -1.105,0 0,0 m -8.286,7.043 c 0,3.936 1.113,7.604 3.341,11.005 2.226,3.4 5.221,5.101 8.985,5.101 2.658,0 4.651,-0.829 5.981,-2.486 1.33,-1.657 1.995,-3.798 1.995,-6.421 0,-3.936 -1.097,-7.579 -3.289,-10.928 -2.193,-3.349 -5.136,-5.023 -8.831,-5.023 -2.727,0 -4.773,0.811 -6.136,2.434 -1.364,1.623 -2.046,3.728 -2.046,6.318" /></g><g
           transform="translate(845.8555,270.5479)"
           id="g172"><path
             id="path174"
             style="fill:#8e9092;fill-opacity:1;fill-rule:nonzero;stroke:none"
             d="m 0,0 c -2.245,-2.313 -3.851,-3.919 -4.816,-4.815 -0.967,-0.898 -2.003,-1.347 -3.108,-1.347 -0.622,0 -1.123,0.224 -1.502,0.673 -0.381,0.449 -0.569,1.019 -0.569,1.712 0,0.379 0.023,0.758 0.073,1.138 0.049,0.381 0.172,1.072 0.367,2.075 l 4.946,24.864 0.289,1.963 c 0,0.895 -0.319,1.515 -0.953,1.86 -0.636,0.345 -1.606,0.517 -2.91,0.517 l 0.156,0.881 8.7,0.828 -6.215,-30.918 -0.207,-1.606 c 0,-0.173 0.052,-0.354 0.155,-0.544 0.104,-0.189 0.241,-0.284 0.414,-0.284 0.553,0 1.365,0.518 2.435,1.554 1.069,1.035 1.761,1.709 2.071,2.019 L 0,0 Z" /></g><g
           transform="translate(864.3965,270.5479)"
           id="g176"><path
             id="path178"
             style="fill:#8e9092;fill-opacity:1;fill-rule:nonzero;stroke:none"
             d="m 0,0 c -2.245,-2.313 -3.851,-3.919 -4.816,-4.815 -0.967,-0.898 -2.003,-1.347 -3.108,-1.347 -0.622,0 -1.123,0.224 -1.502,0.673 -0.381,0.449 -0.569,1.019 -0.569,1.712 0,0.379 0.023,0.758 0.073,1.138 0.049,0.381 0.172,1.072 0.367,2.075 l 4.946,24.864 0.289,1.963 c 0,0.895 -0.319,1.515 -0.953,1.86 -0.636,0.345 -1.606,0.517 -2.91,0.517 l 0.156,0.881 8.7,0.828 -6.215,-30.918 -0.207,-1.606 c 0,-0.173 0.052,-0.354 0.155,-0.544 0.104,-0.189 0.241,-0.284 0.414,-0.284 0.553,0 1.365,0.518 2.435,1.554 1.069,1.035 1.761,1.709 2.071,2.019 L 0,0 Z" /></g><g
           transform="translate(880.6055,266.0947)"
           id="g180"><path
             id="path182"
             style="fill:#8e9092;fill-opacity:1;fill-rule:nonzero;stroke:none"
             d="m 0,0 c 2.417,0 4.255,1.829 5.516,5.489 1.259,3.659 1.89,7.181 1.89,10.566 0,1.657 -0.277,2.968 -0.829,3.935 -0.553,0.966 -1.468,1.45 -2.744,1.45 -2.383,0 -4.23,-1.804 -5.542,-5.412 C -3.021,12.42 -3.677,8.977 -3.677,5.696 -3.677,3.763 -3.34,2.33 -2.667,1.398 -1.993,0.466 -1.105,0 0,0 m -8.286,7.043 c 0,3.936 1.113,7.604 3.341,11.005 2.226,3.4 5.221,5.101 8.985,5.101 2.658,0 4.651,-0.829 5.981,-2.486 1.33,-1.657 1.995,-3.798 1.995,-6.421 0,-3.936 -1.097,-7.579 -3.289,-10.928 -2.193,-3.349 -5.136,-5.023 -8.831,-5.023 -2.727,0 -4.773,0.811 -6.136,2.434 -1.364,1.623 -2.046,3.728 -2.046,6.318" /></g><g
           transform="translate(931.9268,281.0098)"
           id="g184"><path
             id="path186"
             style="fill:#8e9092;fill-opacity:1;fill-rule:nonzero;stroke:none"
             d="M 0,0 C 1.381,0 2.563,0.259 3.548,0.776 4.532,1.295 5.023,2.278 5.023,3.729 5.023,4.522 4.722,5.187 4.117,5.723 3.513,6.258 2.745,6.525 1.813,6.525 0.052,6.525 -1.346,5.826 -2.382,4.428 -3.418,3.029 -4.091,1.554 -4.401,0 L 0,0 Z m 5.438,-15.434 c -1.071,-0.344 -2.175,-0.629 -3.314,-0.854 -1.14,-0.224 -2.4,-0.336 -3.781,-0.336 -2.624,0 -4.679,0.751 -6.162,2.253 -1.486,1.501 -2.228,3.736 -2.228,6.706 0,4.178 1.019,7.872 3.056,11.083 2.037,3.211 5.213,4.816 9.529,4.816 1.864,0 3.418,-0.406 4.661,-1.216 C 8.442,6.206 9.063,4.988 9.063,3.366 9.063,1.777 8.502,0.552 7.38,-0.311 6.258,-1.174 4.074,-1.605 0.829,-1.605 l -5.594,0 c -0.173,-0.861 -0.328,-1.721 -0.465,-2.581 -0.139,-0.859 -0.208,-1.719 -0.208,-2.579 0,-2.441 0.561,-4.358 1.684,-5.751 1.121,-1.392 3.15,-2.088 6.085,-2.088 1.208,0 2.33,0.207 3.366,0.621 l -0.259,-1.451 z" /></g><g
           transform="translate(952.7441,283.6514)"
           id="g188"><path
             id="path190"
             style="fill:#8e9092;fill-opacity:1;fill-rule:nonzero;stroke:none"
             d="m 0,0 0.209,1.605 c 0,0.172 -0.052,0.354 -0.155,0.543 -0.104,0.19 -0.225,0.286 -0.363,0.286 -0.449,0 -1.045,-0.32 -1.787,-0.958 -0.742,-0.64 -1.666,-1.511 -2.77,-2.616 l -0.621,0.57 c 2.243,2.312 3.848,3.918 4.816,4.816 0.966,0.898 2.002,1.347 3.108,1.347 0.655,0 1.156,-0.225 1.501,-0.674 C 4.282,4.47 4.456,3.9 4.456,3.209 4.456,2.655 4.423,2.181 4.357,1.783 4.291,1.386 4.176,0.79 4.011,-0.005 L 2.396,-8.247 2.499,-8.339 c 0.756,1.899 1.736,3.937 2.939,6.111 1.204,2.176 2.553,4.022 4.048,5.542 1.496,1.519 3.051,2.279 4.667,2.279 1.994,0 2.992,-1.14 2.992,-3.418 0,-0.381 -0.027,-0.769 -0.079,-1.165 -0.051,-0.398 -0.164,-0.958 -0.337,-1.684 l -2.951,-12.999 c -0.174,-0.587 -0.259,-1.122 -0.259,-1.605 0,-0.173 0.043,-0.355 0.129,-0.544 0.086,-0.19 0.234,-0.284 0.441,-0.284 0.448,0 1.053,0.327 1.812,0.983 0.759,0.655 1.658,1.519 2.693,2.59 l 0.674,-0.571 c -2.246,-2.313 -3.851,-3.918 -4.817,-4.815 -0.967,-0.897 -2.003,-1.347 -3.107,-1.347 -0.621,0 -1.122,0.225 -1.502,0.674 -0.38,0.45 -0.57,1.021 -0.57,1.713 0,0.829 0.139,1.901 0.418,3.217 l 2.875,12.424 0.332,2.172 c 0,1 -0.379,1.5 -1.139,1.5 -1.83,0 -4.048,-2.676 -6.654,-8.028 -2.608,-5.351 -4.221,-9.736 -4.843,-13.154 l -4.039,0 L 0,0 Z" /></g><g
           transform="translate(1002.9287,265.9395)"
           id="g192"><path
             id="path194"
             style="fill:#8e9092;fill-opacity:1;fill-rule:nonzero;stroke:none"
             d="m 0,0 c 1.898,0 3.202,0.345 3.91,1.035 0.707,0.691 1.251,1.968 1.631,3.833 l 5.334,26.568 -3.107,0 c -2.486,0 -4.239,-0.415 -5.256,-1.244 -1.02,-0.828 -1.787,-2.14 -2.305,-3.935 l -1.45,0 1.45,7.198 26.257,0 -0.673,-7.198 -1.45,0 c 0,1.932 -0.399,3.279 -1.194,4.039 -0.794,0.76 -2.471,1.14 -5.03,1.14 L 15.472,31.438 10.138,4.87 C 10.071,4.353 10.005,3.868 9.938,3.419 9.872,2.971 9.84,2.729 9.84,2.694 9.84,1.623 10.185,0.906 10.875,0.543 11.565,0.181 12.532,0 13.775,0 l -0.207,-1.036 -13.775,0 L 0,0 Z" /></g><g
           transform="translate(1029.1846,265.9395)"
           id="g196"><path
             id="path198"
             style="fill:#8e9092;fill-opacity:1;fill-rule:nonzero;stroke:none"
             d="m 0,0 c 1.899,0 3.203,0.345 3.911,1.035 0.707,0.691 1.251,1.968 1.631,3.833 l 4.557,22.684 c 0.069,0.414 0.13,0.81 0.181,1.19 0.052,0.38 0.095,0.708 0.13,0.985 0,1.069 -0.346,1.787 -1.036,2.149 -0.691,0.362 -1.657,0.544 -2.9,0.544 l 0.207,1.035 13.776,0 -0.208,-1.035 c -1.903,0 -3.21,-0.346 -3.919,-1.036 -0.709,-0.691 -1.255,-1.967 -1.635,-3.83 L 10.138,4.87 C 10.071,4.353 10.005,3.868 9.938,3.419 9.872,2.971 9.84,2.729 9.84,2.694 9.84,1.623 10.185,0.906 10.876,0.543 11.566,0.181 12.533,0 13.776,0 l -0.207,-1.036 -13.776,0 L 0,0 Z" /></g><g
           transform="translate(1075.9492,265.9395)"
           id="g200"><path
             id="path202"
             style="fill:#8e9092;fill-opacity:1;fill-rule:nonzero;stroke:none"
             d="m 0,0 c -1.381,-0.449 -2.84,-0.821 -4.376,-1.114 -1.536,-0.293 -2.892,-0.44 -4.065,-0.44 -4.834,0 -8.295,1.294 -10.384,3.884 -2.089,2.59 -3.133,6.042 -3.133,10.358 0,5.558 1.32,10.496 3.962,14.812 2.641,4.315 7.086,6.474 13.335,6.474 1.658,0 3.452,-0.174 5.387,-0.519 1.932,-0.346 3.746,-0.794 5.437,-1.347 l -1.295,-7.819 -1.087,0 c -0.242,1.933 -0.993,3.693 -2.253,5.282 -1.26,1.588 -3.375,2.382 -6.344,2.382 -3.074,0 -5.498,-1.087 -7.277,-3.263 -1.778,-2.174 -3.012,-4.816 -3.702,-7.923 -0.691,-3.107 -1.036,-6.059 -1.036,-8.856 0,-3.832 0.975,-6.638 2.926,-8.416 1.95,-1.778 4.462,-2.667 7.535,-2.667 1.312,0 2.399,0.104 3.263,0.311 0.863,0.207 2.037,0.57 3.522,1.088 L 0,0 Z" /></g></g></g></g></svg>