<svg width="500" height="255" xmlns="http://www.w3.org/2000/svg" xmlns:xlink="http://www.w3.org/1999/xlink">
 <defs>
  <linearGradient id="linearGradient3842">
   <stop offset="0" id="stop3844" stop-color="#ffff00"/>
   <stop offset="1" id="stop3846" stop-color="#ff7800"/>
  </linearGradient>
  <linearGradient xlink:href="#linearGradient3842" id="linearGradient3876" x1="291.92084" y1="289.26755" x2="268.91547" y2="388.4111" gradientUnits="userSpaceOnUse"/>
  <linearGradient xlink:href="#linearGradient3842" id="linearGradient3023" gradientUnits="userSpaceOnUse" x1="291.92084" y1="289.26755" x2="268.91547" y2="388.4111"/>
  <linearGradient xlink:href="#linearGradient3842" id="linearGradient3022" x1="0.61473" y1="0.10959" x2="0.37615" y2="1.1353"/>
 </defs>
 <metadata id="metadata7">image/svg+xml</metadata>
 <g>
  <title>Layer 1</title>
  <g id="layer1">
   <g id="g3050">
    <path d="m303.187927,67.995499a57.104591,57.104591 0 1 1 -0.009491,-1.062531" id="path3072" fill="url(#linearGradient3022)"/>
    <path d="m184.894257,244.057495l0,-93.500229c-0.000092,-7.972061 -2.439819,-14.19165 -7.319183,-18.658813c-4.879578,-4.467079 -10.686798,-6.7006 -17.421768,-6.700676c-12.164352,0.000061 -19.621033,7.869026 -22.369949,23.606987c-0.000061,5.979141 1.958588,11.133469 5.875992,15.463074c3.917267,4.260986 9.415237,6.494568 16.493958,6.700668c5.154312,-0.412292 10.239929,-1.305725 15.256927,-2.680237l-0.412308,31.647827c-5.498077,1.374512 -10.721161,2.061768 -15.669312,2.061768c-7.491058,0 -14.60408,-1.305786 -21.339081,-3.917358c-6.735077,-2.611511 -12.679771,-6.28833 -17.834099,-11.030319c-5.154396,-4.81073 -9.209145,-10.48053 -12.164322,-17.009399c-2.886459,-6.59761 -4.364029,-13.67627 -4.432755,-21.236023c0.549789,-5.841537 1.133965,-9.965088 1.752495,-12.370468c1.580666,-6.735001 4.535835,-13.263847 8.865517,-19.586617c4.398384,-6.322632 10.617973,-11.614441 18.658821,-15.875488c8.040756,-4.260803 17.799698,-6.391304 29.27681,-6.391434c3.092529,0.000122 5.463547,0.068863 7.113022,0.206184c7.518036,0.899406 11.309021,1.719597 15.658157,4.33197c13.438721,9.059807 13.438721,34.474182 13.438721,54.418518c0,20.842041 2.715851,48.46875 20.344452,53.389404c0,2.044556 0,5.028076 0,37.127441l-33.772049,0.002991" id="path3002" fill="#3771c8"/>
    <path id="path3039" d="m218.683258,52.521l0,93.50024c0.000092,7.972046 2.439819,14.19165 7.319214,18.658813c4.879547,4.467102 10.686798,6.700623 17.421753,6.700684c12.164368,-0.000061 19.621033,-7.869095 22.369965,-23.606995c0.000061,-5.979126 -1.958588,-11.133514 -5.875946,-15.463135c-3.917358,-4.260941 -9.415329,-6.494514 -16.494064,-6.700638c-5.154297,0.412292 -10.239929,1.305733 -15.256927,2.680237l0.412354,-31.647835c5.498077,-1.374504 10.721161,-2.061775 15.669281,-2.061775c7.491089,0 14.60408,1.305794 21.339096,3.917366c6.735077,2.611504 12.679779,6.28833 17.834106,11.030327c5.154388,4.81073 9.209137,10.48053 12.164307,17.009399c2.886475,6.597595 4.364044,13.676254 4.43277,21.236038c-0.549744,5.841537 -1.133881,9.965027 -1.752441,12.370468c-1.580688,6.735001 -4.535889,13.26384 -8.865509,19.586609c-4.398438,6.322632 -10.61795,11.614441 -18.658813,15.875488c-8.040771,4.260803 -17.799744,6.391312 -29.276825,6.391434c-3.09256,-0.000122 -5.463562,-0.068863 -7.113052,-0.206192c-7.518021,-0.899475 -11.30899,-1.719589 -15.658127,-4.33197c-13.438751,-9.059799 -13.438751,-34.474167 -13.438751,-54.418518c0,-20.842026 -2.715851,-48.46875 -20.344421,-53.389397c0,-2.044556 0,-5.028076 0,-37.127449l33.772049,-0.002991" fill="#3771c8"/>
    <path d="m420.638977,199.413818l-33.616974,0l0,-50.065002c0,-6.853027 -1.953003,-12.575989 -5.859009,-17.167969c-3.906982,-4.592026 -9.903992,-6.888 -17.990997,-6.888c-2.877991,0 -6.065002,0.651001 -9.559998,1.952942c-3.496002,1.30304 -6.596985,3.667053 -9.303986,7.09407c-2.707001,3.426987 -4.061005,7.983948 -4.061005,13.672958c0,8.291992 2.415985,14.203003 7.247986,17.732971c4.832001,3.530029 9.78302,5.294006 14.855011,5.294006c3.494995,0 6.424988,-0.170959 8.789001,-0.513977c2.36499,-0.34198 4.917999,-1.096008 7.658997,-2.260986l0,27.755981c-2.123993,1.781982 -5.123016,3.221008 -8.994995,4.317993c-3.872009,1.09697 -8.104004,1.64502 -12.696014,1.64502c-9.458008,0 -18.075989,-2.416031 -25.85498,-7.248001c-7.779022,-4.830978 -13.878021,-11.376999 -18.299011,-19.63501c-4.420013,-8.258011 -6.631012,-17.28801 -6.631012,-27.087997c0.412018,-15.901001 5.740021,-28.614014 15.986023,-38.140015c10.245972,-9.526001 22.462982,-14.631973 36.648987,-15.317993c7.471008,0 14.855011,0.90802 22.153992,2.725044c7.299011,1.815979 13.912994,4.625977 19.841003,8.428955c5.928009,3.804024 10.69101,8.756042 14.290009,14.855042c3.597992,6.099983 5.396973,13.364998 5.396973,21.793938l0,57.05603z" id="path3807" fill="#333333"/>
    <path d="m458.899994,97.124802l0,17.271202c1.576019,-5.208 4.386017,-9.423203 8.429993,-12.645203c4.042999,-3.221001 9.560028,-4.831001 16.551025,-4.831001c1.987,0 3.460999,0.068001 4.419983,0.205002l0,30.327202c-6.921997,0.342987 -12.199005,1.148003 -15.830994,2.415993c-3.632996,1.268005 -6.151001,3.153015 -7.556,5.654007c-1.404999,2.501999 -2.108002,5.979996 -2.108002,10.434998l0,53.457001l-33.615997,0l0,-102.2892l29.709991,0l0,0z" id="path3809" fill="#333333"/>
    <path d="m41.328999,97.042801l0,58.741196c0,4.389999 1.083,7.888 3.249001,10.494003c2.167,2.606003 4.773003,4.011993 7.82,4.218002c3.384003,-0.206009 6.279003,-1.628998 8.682003,-4.270004c2.403,-2.639999 3.604996,-6.257996 3.604996,-10.852997l0,-58.3302l31.987999,0l0,60.902206c0,6.926987 -1.590996,13.784988 -4.772995,20.574997c-3.181999,6.789993 -8.005005,12.395996 -14.471001,16.819992c-6.465004,4.424011 -14.403,6.63501 -23.813,6.63501c-9.072002,-0.205002 -16.908001,-2.194 -23.509001,-5.966003c-6.6,-3.772003 -11.644001,-9.053009 -15.13,-15.843002c-3.487,-6.789993 -5.22997,-14.505997 -5.22997,-23.147003l0,-59.976097l31.581968,0l0,-0.000099l0,0l0,0z" id="path3021" fill="#333333"/>
    <path d="m230.983994,87.7248c0,1.192001 0.259003,2.253998 0.778,3.188004c0.518005,0.932999 1.451004,1.399994 2.799011,1.399994c0.673996,0 1.362,-0.154999 2.061996,-0.465996c0.699997,-0.311005 1.334991,-0.726006 1.906006,-1.245003c0.569992,-0.518997 1.023987,-1.115997 1.360992,-1.790001c0.337006,-0.673996 0.505997,-1.373001 0.505997,-2.098c0,-0.624001 -0.181992,-1.103996 -0.544998,-1.441002c-0.362991,-0.336998 -0.751999,-0.660995 -1.166992,-0.972c-0.414001,-0.310997 -0.803009,-0.634995 -1.166,-0.972c-0.363998,-0.336998 -0.544998,-0.815994 -0.544998,-1.437996l0,-0.543999c0,-0.519005 0.051987,-1.426003 0.154999,-2.722c0.103989,-1.296005 0.207993,-2.669998 0.310989,-4.122002c0.104004,-1.452003 0.194,-2.825996 0.272003,-4.123001c0.078003,-1.296997 0.141998,-2.205002 0.195007,-2.723999c0.362,-0.984001 0.789993,-1.554001 1.28299,-1.709999c0.492004,-0.155998 1.206009,-0.310997 2.139008,-0.466003c0.154999,-0.052994 0.50499,-0.142998 1.048996,-0.272995c0.544998,-0.130005 1.128006,-0.260002 1.751007,-0.389c0.623001,-0.130005 1.205994,-0.260002 1.75,-0.388c0.544998,-0.130005 0.893997,-0.194 1.049988,-0.194c1.296005,-0.259003 2.876999,-0.584003 4.744003,-0.973003c1.867996,-0.389 3.656006,-0.933998 5.367004,-1.632999c1.710999,-0.699997 3.161987,-1.632999 4.355988,-2.799999c1.193024,-1.167 1.789001,-2.658001 1.789001,-4.473c0,-1.296001 -0.337006,-2.578999 -1.010986,-3.849998c-0.674011,-1.27 -1.516998,-2.476002 -2.528015,-3.617001c-1.010986,-1.141003 -2.099976,-2.178001 -3.266998,-3.111c-1.166992,-0.931999 -2.216995,-1.709999 -3.150986,-2.332001l-19.366013,-12.523001c-0.516998,-0.310999 -1.112991,-0.545 -1.786987,-0.699999c-0.674011,-0.155001 -1.297012,-0.232 -1.868011,-0.232c-1.243988,0 -2.293991,0.348999 -3.149994,1.049c-0.856003,0.698999 -1.595001,1.566999 -2.216995,2.605c-0.622009,1.037001 -1.126999,2.126001 -1.516998,3.267c-0.389008,1.140999 -0.739014,2.152 -1.049011,3.033001c-0.155991,0.415001 -0.246994,0.738998 -0.272995,0.972099c-0.024994,0.233898 -0.037994,0.531898 -0.037994,0.893898c0,0.416103 0.103989,0.974003 0.310989,1.673c0.208008,0.700001 0.46701,1.400002 0.778,2.100002c0.311005,0.700001 0.621002,1.297001 0.932007,1.788998c0.311005,0.493 0.569992,0.740002 0.778,0.740002l2.179001,0c0.259003,0 0.427994,-0.195 0.505005,-0.5839c0.077988,-0.389099 0.115997,-0.662098 0.115997,-0.817101c0,-0.778 -0.103012,-1.542999 -0.309998,-2.294899c-0.208008,-0.751099 -0.311005,-1.490101 -0.311005,-2.217098c0,-0.517002 0.076996,-1.126003 0.231995,-1.826c0.154999,-0.700001 0.389008,-1.388 0.699997,-2.062c0.312012,-0.674 0.714005,-1.243999 1.206009,-1.711002c0.492004,-0.466999 1.048996,-0.700001 1.67099,-0.700001c0.674011,0 1.284012,0.194 1.82901,0.584003c0.544998,0.389 1.076996,0.816998 1.595001,1.282997c0.51799,0.466 1.050003,0.919003 1.593994,1.361c0.544006,0.441002 1.153,0.713001 1.828003,0.816002c3.214996,1.868099 6.403992,3.837997 9.565994,5.911999c3.16301,2.073101 6.014999,4.485001 8.556,7.233002c0.259003,0.309998 0.531998,0.673 0.815994,1.087997c0.285004,0.416 0.428009,0.831001 0.428009,1.245003c0,0.777 -0.376007,1.451 -1.128006,2.021c-0.750992,0.570999 -1.697998,1.077 -2.838989,1.516998c-1.141006,0.441101 -2.411011,0.817001 -3.809998,1.129002c-1.400009,0.312099 -2.761002,0.570999 -4.083008,0.778099c-1.321991,0.208 -2.528,0.388901 -3.617004,0.543999c-1.089996,0.1549 -1.867996,0.284901 -2.334991,0.388901l-0.154007,0.077999c-0.570999,0 -1.024994,-0.271999 -1.362,-0.815899c-0.337997,-0.543999 -0.556992,-1.025101 -0.659988,-1.441101c-0.105011,-2.953999 -0.274002,-5.909 -0.507004,-8.864998c-0.234009,-2.956001 -0.376007,-5.937901 -0.42601,-8.9459c-0.259995,-1.037003 -0.90799,-1.555 -1.945999,-1.555c-0.776993,0 -1.386002,0.246998 -1.826996,0.739998c-0.440994,0.492901 -0.751999,1.102001 -0.932999,1.8269c-0.181,0.726002 -0.285004,1.4771 -0.311005,2.255001c-0.026001,0.778 -0.039001,1.452099 -0.039001,2.024101l0,1.010998c0,0.049999 0.026001,0.205002 0.077011,0.464901c0.052002,0.260101 0.089996,0.5191 0.115997,0.778099c0.026993,0.260002 0.052994,0.52 0.078995,0.7789c0.026001,0.260101 0.039001,0.4151 0.039001,0.465099c0,0.312 0.026001,1.024902 0.076996,2.139999c0.052002,1.115002 0.090012,2.319901 0.116013,3.616001c0.026993,1.296001 0.052994,2.514999 0.078995,3.656002c0.026001,1.139999 0.039001,1.841 0.039001,2.099998c0.052002,0.207001 0.104004,0.635002 0.154999,1.283001c0.052002,0.647999 0.104004,1.076 0.156006,1.283001l0,12.445c-0.363007,2.021996 -0.609009,4.108902 -0.738007,6.261002c-0.130005,2.152 -0.195007,4.264999 -0.195007,6.339996l0,0l0,-0.000099l0,0l0,0z" id="path3000" fill="#666666"/>
    <path d="m264.800995,61.434799c0,0.726002 0.324005,1.323002 0.972015,1.790001c0.64798,0.466999 1.30899,0.700001 1.983002,0.700001l0.777985,0c1.140015,-0.986 1.942993,-2.049 2.410004,-3.190002c0.466003,-1.140999 0.700012,-2.462997 0.700012,-3.966c0,-0.882 -0.052002,-1.737 -0.156036,-2.566998c-0.102997,-0.830002 -0.154999,-1.686001 -0.154999,-2.567001l0,-2.101002c0.414032,-0.983997 0.893951,-1.851997 1.437958,-2.603996c0.545013,-0.751003 1.412994,-1.127003 2.606079,-1.127003c1.194,0 2.398987,0.116001 3.617981,0.350002c1.218018,0.232998 2.42395,0.349998 3.617004,0.349998c0.622009,0 1.463989,-0.026001 2.526947,-0.077999c1.062042,-0.052002 2.098999,-0.208 3.110046,-0.468002c1.011017,-0.258999 1.879974,-0.660999 2.606934,-1.205997c0.726013,-0.544003 1.08902,-1.334 1.08902,-2.371002c0,-0.778 -0.26001,-1.335999 -0.778961,-1.673c-0.518982,-0.336998 -1.139984,-0.505997 -1.86499,-0.505997c-0.93399,0 -1.841003,0.104 -2.722992,0.3111c-0.881012,0.206898 -1.789001,0.310898 -2.722015,0.310898c-1.556,0 -2.955994,-0.206902 -4.199982,-0.621998c-1.244995,-0.414001 -2.411011,-0.971901 -3.5,-1.672001c-1.08902,-0.700001 -2.126007,-1.5299 -3.112,-2.489002c-0.985992,-0.959 -1.971008,-1.955997 -2.955017,-2.993c-0.207001,-0.206898 -0.427979,-0.323898 -0.66098,-0.349899c-0.233002,-0.026001 -0.480011,-0.038998 -0.739014,-0.038998c-0.777008,0 -1.333984,0.232899 -1.67099,0.699898c-0.337006,0.467102 -0.71402,0.9851 -1.130005,1.555099l0,13.065903c-0.415009,1.762997 -0.700012,3.383999 -0.855011,4.861099c-0.154999,1.477898 -0.231995,3.098999 -0.231995,4.862l0,3.732899l0,0z" id="path3003" fill="#666666"/>
    <path d="m293.510986,50.312801c0,1.918999 0.389008,3.812 1.167023,5.677998c0.777985,1.867001 1.841003,3.552101 3.188995,5.055c1.347992,1.503002 2.903992,2.722 4.665985,3.655014c1.763,0.93399 3.656006,1.400986 5.678009,1.400986l10.888,0c0.985016,0 1.971008,-0.195 2.955994,-0.583c0.985016,-0.389 1.891998,-0.815987 2.721008,-1.282997c0.985992,-0.623001 1.958008,-1.246002 2.916992,-1.868c0.959015,-0.622002 1.789001,-1.322002 2.489014,-2.099003c0.699982,-0.778 1.270996,-1.646 1.710999,-2.605c0.44101,-0.959 0.66098,-2.060898 0.66098,-3.306999c0,-1.140999 -0.167999,-2.152 -0.504974,-3.033001c-0.337006,-0.882 -0.791016,-1.710999 -1.361023,-2.488998c-0.570953,-0.778 -1.205963,-1.5289 -1.904999,-2.255001c-0.699982,-0.724998 -1.411987,-1.502899 -2.138977,-2.334c-1.141022,-1.296001 -2.282013,-2.527 -3.422028,-3.694c-1.140991,-1.166 -2.346985,-2.202999 -3.616974,-3.110001c-1.269012,-0.908001 -2.656006,-1.620998 -4.160004,-2.139999c-1.504944,-0.519001 -3.190002,-0.778 -5.057007,-0.778c-2.333008,0 -4.52301,0.362999 -6.571991,1.089001c-2.048004,0.725998 -3.837006,1.764 -5.365997,3.112c-1.529999,1.348 -2.735016,2.993999 -3.615997,4.938c-0.882019,1.944 -1.323029,4.160999 -1.323029,6.650002l0,0zm5.289001,0.077999c0,-1.3479 0.298004,-2.618999 0.89502,-3.811001c0.595978,-1.192001 1.373993,-2.242001 2.333008,-3.149998c0.958984,-0.907001 2.060974,-1.633003 3.304993,-2.177002c1.244995,-0.544998 2.540985,-0.817001 3.888977,-0.817001c1.659027,0 3.188019,0.246002 4.588013,0.738003c1.401001,0.491997 2.709991,1.140099 3.929016,1.944c1.217987,0.803997 2.371979,1.738098 3.459991,2.800999c1.088989,1.063 2.178009,2.165001 3.265991,3.3041c0.519012,0.5709 1.167999,1.323898 1.945007,2.256901c0.777985,0.933998 1.166992,1.892998 1.166992,2.876999c0,0.882 -0.272003,1.621101 -0.81601,2.216999c-0.544983,0.597099 -1.205994,1.180099 -1.984985,1.749001c-0.932007,0.674 -1.993988,1.219002 -3.187012,1.635002c-1.194,0.414997 -2.424988,0.725998 -3.694977,0.934097c-1.27002,0.206902 -2.553009,0.348999 -3.850006,0.427002c-1.296997,0.0769 -2.489014,0.115898 -3.578003,0.115898c-1.450989,0 -2.877014,-0.284901 -4.277008,-0.855999c-1.401001,-0.57 -2.644989,-1.361 -3.734009,-2.372002c-1.088989,-1.010998 -1.970001,-2.190998 -2.643982,-3.538898c-0.674011,-1.348099 -1.011017,-2.774101 -1.011017,-4.2771l0,0l0,0z" id="path3005" fill="#666666"/>
    <path d="m334.071014,69.834801c0,2.281998 0.323975,4.538002 0.971985,6.766998c0.64801,2.230003 1.619995,4.238998 2.916016,6.028c1.29599,1.789001 2.915985,3.228004 4.860992,4.316002c1.945007,1.088997 4.187988,1.632996 6.729004,1.632996c1.556,0 3.006989,-0.271996 4.35498,-0.815994c1.347015,-0.543999 2.552002,-1.283005 3.615997,-2.216904c1.063019,-0.934097 1.932007,-2.048096 2.606018,-3.344002c0.673981,-1.296097 1.140991,-2.696098 1.399994,-4.199097c0,-0.156998 0,-0.442001 0,-0.857002c0,-0.414894 0.013,-0.854996 0.040009,-1.321999c0.026001,-0.467003 0.039001,-0.933998 0.039001,-1.401001c0,-0.414001 0,-0.698997 0,-0.853897c0,-5.341003 -0.519012,-10.513 -1.556,-15.517101c-1.037018,-5.005001 -2.412018,-10.021 -4.124023,-15.0499c-0.257996,-0.622101 -0.684998,-1.244099 -1.281982,-1.8671c-0.597015,-0.622002 -1.257996,-0.933998 -1.984009,-0.933998c-0.82901,0 -1.386993,0.299 -1.671997,0.8951c-0.286011,0.596897 -0.428986,1.231899 -0.428986,1.905998c0,0.880901 0.103973,1.763 0.311981,2.643902c0.208008,0.882099 0.468018,1.762997 0.778992,2.643997c0.311005,0.882 0.63501,1.751102 0.972015,2.607002c0.337006,0.855999 0.609009,1.6721 0.81601,2.4491c0.881989,3.216 1.569,6.521 2.061981,9.916897c0.493011,3.396 0.739014,6.753002 0.739014,10.071003c0,0.933998 -0.039001,1.918999 -0.117004,2.956001c-0.07901,1.037994 -0.299011,2.009995 -0.661011,2.917c-0.363007,0.907997 -0.893982,1.659996 -1.593994,2.256996c-0.700989,0.596001 -1.673004,0.894005 -2.919006,0.894005c-1.347992,0 -2.759979,-0.103905 -4.237976,-0.311905c-1.47702,-0.208099 -2.786011,-0.726997 -3.927002,-1.556099c-1.088013,-0.829002 -1.944,-2.020996 -2.567017,-3.576996c-0.622009,-1.555 -1.140991,-3.111 -1.556,-4.666c-0.414001,-1.556 -0.82901,-2.917 -1.243011,-4.084c-0.414978,-1.167 -1.011993,-1.75 -1.789978,-1.75c-0.312012,0 -0.649017,0.050995 -1.011017,0.154999c-0.362976,0.103996 -0.543976,0.363098 -0.543976,0.777l0,2.490097l0,-0.000099l0,0l0,0zm11.820984,-44.255001c0.829987,1.193001 1.997009,2.204 3.501007,3.033001c1.502991,0.83 2.850983,1.477999 4.044006,1.944l0.621979,0c1.244019,0 1.865997,-0.622002 1.865997,-1.865002c0,-0.674 -0.259003,-1.4 -0.777985,-2.177999c-0.518005,-0.778 -1.166016,-1.490999 -1.944,-2.139999c-0.777008,-0.649 -1.606995,-1.1929 -2.488007,-1.634001c-0.881989,-0.441 -1.658997,-0.660999 -2.333984,-0.660999c-0.726013,0 -1.335022,0.246 -1.827026,0.739c-0.491974,0.493 -0.737976,1.1031 -0.737976,1.829c0,0.102999 0.011993,0.258099 0.037994,0.464998c0.024994,0.208 0.037994,0.364 0.037994,0.468l0,0l0,0z" id="path3007" fill="#666666"/>
    <path d="m363.085999,49.6908c0,1.296001 0.141998,2.500999 0.427002,3.616001c0.285004,1.114998 0.868011,2.165001 1.748993,3.151001c1.348999,1.450996 2.761993,2.863998 4.240021,4.237999c1.477997,1.374001 3.201996,2.346001 5.171997,2.916c0.310974,0.104 0.751984,0.221001 1.322998,0.350998c0.569977,0.129997 1.140991,0.260101 1.710999,0.389c0.570984,0.129997 1.075989,0.247002 1.516998,0.350098c0.440979,0.104004 0.686005,0.155907 0.737,0.155907l10.578979,0c0.103027,0 0.388,-0.038902 0.854004,-0.118004c0.46701,-0.078003 0.830017,-0.141899 1.089996,-0.193001c0.207001,-0.052002 0.570007,-0.129997 1.088013,-0.234001c0.518005,-0.102898 1.075989,-0.232994 1.671997,-0.388996c0.597015,-0.156002 1.166992,-0.286003 1.712006,-0.389c0.544006,-0.103901 0.920013,-0.1819 1.127014,-0.234001c0.570984,-0.154999 1.02597,-0.479 1.362976,-0.971001c0.337006,-0.492001 0.505005,-1.023899 0.505005,-1.595001c0,-0.880997 -0.363007,-1.412998 -1.088989,-1.593998c-0.72702,-0.180901 -1.401001,-0.2719 -2.02301,-0.2719c-0.984985,0 -1.789001,0.038898 -2.411011,0.117001c-0.621979,0.0769 -1.47699,0.2719 -2.565979,0.583l-10.03302,0c-0.051971,0 -0.27298,-0.052002 -0.661987,-0.156101c-0.389984,-0.105 -0.855988,-0.221001 -1.401001,-0.349998c-0.544006,-0.129002 -1.088013,-0.259003 -1.632996,-0.388c-0.544006,-0.130001 -0.971008,-0.247002 -1.281006,-0.352001c-0.778992,-0.207001 -1.622009,-0.543999 -2.528992,-1.011002c-0.90802,-0.466999 -1.751007,-1.023998 -2.528015,-1.671997c-0.777985,-0.648003 -1.438995,-1.387001 -1.983002,-2.216c-0.544983,-0.829002 -0.816986,-1.710003 -0.816986,-2.643902c0,-0.2071 0.091003,-0.454098 0.272003,-0.739101c0.181,-0.285999 0.401001,-0.557999 0.66098,-0.816998c0.259003,-0.257999 0.532013,-0.479 0.818024,-0.660999c0.285004,-0.182003 0.531982,-0.273003 0.738983,-0.273003l10.966003,0c0.674011,0 1.412994,-0.154999 2.21701,-0.466c0.803986,-0.311001 1.554993,-0.725899 2.255005,-1.243999c0.698975,-0.518002 1.281982,-1.113998 1.748993,-1.787998c0.46701,-0.675003 0.699982,-1.375 0.699982,-2.101002c0,-1.607998 -0.349976,-2.890999 -1.048981,-3.849998c-0.699005,-0.959 -1.606018,-1.724003 -2.721008,-2.294003c-1.11499,-0.57 -2.333984,-0.972 -3.656982,-1.205997c-1.323029,-0.233002 -2.606018,-0.401901 -3.850006,-0.507l-1.944,0c-1.970001,0 -3.759003,0.428101 -5.365997,1.285c-1.608002,0.855999 -2.982025,1.969997 -4.123016,3.343998c-1.140991,1.373001 -2.022003,2.955101 -2.643982,4.743c-0.622009,1.789001 -0.933014,3.617001 -0.933014,5.485001l0,0l0,0l0,0l0,0zm10.265991,-8.010998c0,-0.362003 0.141998,-0.635002 0.428009,-0.817001c0.286011,-0.181999 0.610016,-0.298 0.972015,-0.350002c0.362,-0.050999 0.724976,-0.077 1.088989,-0.077c0.415009,0 0.725983,0 0.932983,0c0.208008,0 0.571014,0 1.090027,0c0.569,0 1.125977,0.039001 1.67099,0.116001c0.544006,0.077999 1.023987,0.220001 1.437988,0.428001c0.415009,0.206997 0.622009,0.492001 0.622009,0.854c0,0.104 -0.013,0.272999 -0.037994,0.507c-0.024994,0.232998 -0.141998,0.349998 -0.348999,0.349998l-7.46701,0c-0.26001,0 -0.389008,-0.155998 -0.389008,-0.467999c0,-0.310001 0,-0.491001 0,-0.542999l0,0l0,0z" id="path3009" fill="#666666"/>
    <path d="m401.519012,49.3008c0,2.852001 0.504974,5.263 1.515991,7.234001c1.011993,1.970997 2.398987,3.578999 4.161011,4.822998c1.763,1.245102 3.784973,2.139 6.065979,2.683002c2.281006,0.544998 4.718018,0.817001 7.312012,0.817001c1.140991,0 2.242004,0.011993 3.304993,0.038994c1.062988,0.026001 2.138,-0.090897 3.22699,-0.349998c0.207001,-0.052002 0.661011,-0.155998 1.361023,-0.311996c0.699982,-0.156006 1.490997,-0.338001 2.372986,-0.545002c0.881012,-0.207001 1.737,-0.401001 2.567017,-0.583c0.829987,-0.181 1.451996,-0.324001 1.865997,-0.428001c0.621979,-0.154999 1.140991,-0.439999 1.554993,-0.854c0.415009,-0.414997 0.622009,-0.959 0.622009,-1.633999c0,-0.829998 -0.298004,-1.414001 -0.894012,-1.750999c-0.595001,-0.337002 -1.256989,-0.506001 -1.983002,-0.506001c-1.29599,0 -2.59201,0.104 -3.889008,0.312c-1.296997,0.208 -2.605988,0.429001 -3.927979,0.660999c-1.322021,0.233002 -2.644012,0.452999 -3.966003,0.660999c-1.322998,0.208 -2.632019,0.313 -3.927002,0.313c-1.348999,0 -2.748993,-0.246998 -4.201019,-0.739998c-1.450989,-0.493 -2.786987,-1.18 -4.004974,-2.061001c-1.218018,-0.882 -2.216003,-1.931999 -2.994019,-3.149998c-0.777985,-1.218002 -1.166992,-2.579002 -1.166992,-4.083c0,-0.519001 0.065002,-1.141003 0.195007,-1.868c0.130005,-0.726002 0.337006,-1.413002 0.621979,-2.060902c0.285004,-0.647999 0.660004,-1.205101 1.127014,-1.6721c0.46701,-0.466999 1.062988,-0.700001 1.790009,-0.700001c0.102997,0 0.218994,0.012001 0.348999,0.039101c0.128998,0.026001 0.246979,0.039001 0.350983,0.039001c0.674011,0.4669 1.231018,1.127899 1.671997,1.982899c0.44101,0.855 0.894012,1.685001 1.360016,2.488998c0.466003,0.804001 0.997986,1.517002 1.593994,2.140003c0.597015,0.621998 1.388,0.933998 2.373993,0.933998c0.622009,0 1.140015,-0.143002 1.554016,-0.429001c0.414978,-0.285 0.751984,-0.648998 1.011993,-1.089001c0.259003,-0.440998 0.44101,-0.932999 0.544006,-1.477997c0.104004,-0.544003 0.156006,-1.076 0.156006,-1.595001c0,-0.777 -0.091003,-1.451 -0.272003,-2.021c-0.181,-0.57 -0.440002,-1.115002 -0.777008,-1.632999c-0.337006,-0.518002 -0.739014,-1.011002 -1.205994,-1.478001c-0.46701,-0.466 -0.960022,-0.985001 -1.479004,-1.556999c-0.362,-0.362 -0.686005,-0.841 -0.972015,-1.438c-0.28598,-0.597 -0.596985,-1.154003 -0.93399,-1.672001c-0.337006,-0.518002 -0.713013,-0.972 -1.127014,-1.361c-0.414978,-0.389999 -0.932983,-0.584 -1.554993,-0.584c-0.414978,0 -0.725983,0 -0.932983,0c-0.157013,0 -0.390015,0.103001 -0.700012,0.311001c-1.037994,0.674 -2.023987,1.308998 -2.955994,1.905998c-0.933014,0.596001 -1.802002,1.230999 -2.605011,1.906002c-0.803986,0.674 -1.529999,1.438 -2.177979,2.293999c-0.64801,0.855 -1.206024,1.853001 -1.672028,2.993999c-0.259979,0.674 -0.376984,1.542999 -0.349976,2.605999c0.026001,1.063 0.039001,1.880001 0.039001,2.450001l0,-0.000999l0,0l0,0l0,0z" id="path3011" fill="#666666"/>
    <path d="m451.561005,44.556801c0.104004,2.488998 0.234009,5.042999 0.389008,7.661999c0.154999,2.618 0.336975,5.172001 0.54599,7.661999c0.050995,0.517002 0.10199,1.139 0.153992,1.865002c0.053009,0.726002 0.182007,1.439999 0.390015,2.139999c0.207001,0.700001 0.531006,1.296001 0.971985,1.788013c0.439941,0.492996 1.050018,0.738991 1.82901,0.738991c1.036011,0 1.787933,-0.324013 2.253998,-0.972c0.46701,-0.647995 0.700989,-1.465004 0.700989,-2.451004c0,-0.931999 -0.065002,-1.735001 -0.194977,-2.409c-0.130005,-0.674 -0.402008,-1.529999 -0.817078,-2.568001l0,-12.521c0,-0.415997 0.221069,-0.806 0.662079,-1.167999c0.439911,-0.362 0.84198,-0.596001 1.203979,-0.700001c0.46701,-0.051998 1.309998,-0.116997 2.528015,-0.195c1.217987,-0.077 2.514984,-0.167999 3.888977,-0.271999c1.374023,-0.103001 2.671021,-0.207001 3.889008,-0.309998c1.218994,-0.104 2.061005,-0.156002 2.528015,-0.156002c0.776978,-0.104 1.502991,-0.246998 2.177002,-0.428001c0.673981,-0.181 1.010986,-0.764999 1.010986,-1.750999c0,-0.621998 -0.221008,-1.100998 -0.661011,-1.438c-0.440979,-0.336998 -0.958984,-0.583 -1.554993,-0.737999c-0.596008,-0.154999 -1.217987,-0.245998 -1.867004,-0.271999c-0.648987,-0.026001 -1.179993,-0.065002 -1.595001,-0.118c-0.414001,0 -1.126953,-0.025002 -2.138,-0.077c-1.011932,-0.050991 -2.074982,-0.09 -3.188995,-0.116001c-1.11499,-0.026001 -2.177979,-0.051998 -3.188995,-0.077999c-1.010986,-0.027 -1.723999,-0.040001 -2.139008,-0.040001c-1.29599,-0.726002 -2.086975,-1.659 -2.371979,-2.799999c-0.286011,-1.140999 -0.429016,-2.386101 -0.429016,-3.734001c0,-0.8811 0.052002,-1.75 0.157013,-2.605c0.104004,-0.855 0.156982,-1.7241 0.156982,-2.605c0,-0.986 -0.233978,-1.984001 -0.700989,-2.995001c-0.466003,-1.0121 -1.29599,-1.517 -2.489014,-1.517c-0.621979,0 -1.127991,0.233 -1.516998,0.6999c-0.388977,0.4671 -0.687988,0.986101 -0.894989,1.5571c0,0.155001 -0.011993,0.492001 -0.039001,1.01c-0.026001,0.518 -0.039001,0.856001 -0.039001,1.012001c0,0.881899 0.065002,1.737 0.194,2.566c0.130005,0.828899 0.195007,1.684999 0.195007,2.565899c0,0.4161 0,0.935101 0,1.557102c0,0.57 -0.078003,1.113998 -0.233002,1.632999c-0.154999,0.518997 -0.401001,0.959999 -0.738007,1.321999c-0.337006,0.362999 -0.81601,0.543999 -1.437988,0.543999c-0.72702,0 -1.401001,-0.168999 -2.024017,-0.505997c-0.621979,-0.337002 -1.231995,-0.700001 -1.826996,-1.088001c-0.596069,-0.389 -1.192047,-0.750999 -1.789001,-1.088001c-0.596008,-0.336998 -1.258057,-0.506001 -1.983978,-0.506001c-0.62207,0 -1.192078,0.246002 -1.710022,0.738003c-0.518982,0.491997 -0.777985,1.074997 -0.777985,1.75c0,0.674 0.194,1.308998 0.582977,1.905998c0.388,0.596001 0.855011,1.127998 1.399017,1.595001c0.544983,0.466 1.140991,0.893997 1.790009,1.281998c0.648987,0.389 1.257996,0.687 1.828003,0.894001c0.518982,0.209 1.140991,0.390999 1.865997,0.546001c0.725983,0.154999 1.438995,0.348999 2.138977,0.583c0.700012,0.232998 1.322021,0.556999 1.867004,0.972c0.544006,0.413998 0.894012,0.959 1.049011,1.632999l0,0l0,0z" id="path3013" fill="#666666"/>
   </g>
  </g>
 </g>
</svg>